<svg width="206" height="111" viewBox="0 0 206 111" fill="none" xmlns="http://www.w3.org/2000/svg">
<rect y="46.3131" width="195.922" height="66" rx="10" transform="rotate(-13.6733 0 46.3131)" fill="#4EA487"/>
<mask id="mask0_3288_980" style="mask-type:alpha" maskUnits="userSpaceOnUse" x="9" y="40" width="62" height="61">
<rect x="70.0664" y="88.9591" width="50" height="50" transform="rotate(166.327 70.0664 88.9591)" fill="#D9D9D9"/>
</mask>
<g mask="url(#mask0_3288_980)">
<path d="M39.934 46.3464L40.4589 48.5038C40.6076 49.1151 40.5286 49.6771 40.2218 50.1897C39.915 50.7023 39.4605 51.0319 38.8583 51.1784C38.2561 51.3249 37.7009 51.241 37.193 50.9266C36.685 50.6121 36.3566 50.1493 36.2079 49.538L35.683 47.3806C35.5343 46.7693 35.6134 46.2073 35.9201 45.6947C36.2269 45.1821 36.6814 44.8525 37.2837 44.706C37.8859 44.5595 38.441 44.6434 38.949 44.9578C39.457 45.2722 39.7853 45.7351 39.934 46.3464ZM62.1868 63.7843L60.0613 64.3014C59.459 64.4479 58.9039 64.3639 58.3959 64.0495C57.888 63.7351 57.5596 63.2723 57.4109 62.661C57.2622 62.0497 57.3412 61.4878 57.648 60.9752C57.9548 60.4625 58.4093 60.133 59.0115 59.9865L61.137 59.4694C61.7393 59.3228 62.2944 59.4068 62.8024 59.7212C63.3103 60.0356 63.6387 60.4985 63.7874 61.1097C63.9361 61.721 63.8571 62.283 63.5503 62.7956C63.2435 63.3082 62.789 63.6378 62.1868 63.7843ZM26.0532 72.5749L23.9277 73.092C23.3255 73.2385 22.7704 73.1545 22.2624 72.8401C21.7544 72.5257 21.426 72.0629 21.2773 71.4516C21.1286 70.8403 21.2076 70.2784 21.5144 69.7657C21.8212 69.2531 22.2757 68.9235 22.8779 68.777L25.0035 68.2599C25.6057 68.1134 26.1608 68.1974 26.6688 68.5118C27.1768 68.8262 27.5051 69.289 27.6538 69.9003C27.8025 70.5116 27.7235 71.0736 27.4167 71.5862C27.1099 72.0988 26.6554 72.4284 26.0532 72.5749ZM27.4881 53.4875L29.3434 54.6358C29.8293 54.9365 30.1466 55.3925 30.2953 56.0038C30.444 56.6151 30.3717 57.1659 30.0782 57.6562C29.7848 58.1465 29.3369 58.465 28.7347 58.6115C28.1325 58.758 27.5884 58.6809 27.1025 58.3801L25.2472 57.2319C24.7613 56.9311 24.444 56.4751 24.2953 55.8639C24.1466 55.2526 24.219 54.7018 24.5124 54.2114C24.8059 53.7211 25.2537 53.4027 25.8559 53.2562C26.4582 53.1096 27.0022 53.1868 27.4881 53.4875ZM53.729 50.3028L52.6086 52.175C52.3151 52.6654 51.8673 52.9838 51.265 53.1303C50.6628 53.2768 50.1188 53.1997 49.6329 52.899C49.1469 52.5982 48.8296 52.1422 48.6809 51.5309C48.5322 50.9196 48.6046 50.3688 48.898 49.8785L50.0185 48.0063C50.3119 47.516 50.7598 47.1975 51.362 47.051C51.9642 46.9045 52.5083 46.9816 52.9942 47.2824C53.4801 47.5831 53.7974 48.0391 53.9461 48.6504C54.0948 49.2617 54.0225 49.8125 53.729 50.3028ZM39.908 55.4933C42.8483 54.778 45.6105 55.22 48.1946 56.8194C50.7787 58.4188 52.4338 60.7107 53.1599 63.6952C53.5798 65.4212 53.5904 67.1229 53.1918 68.8005C52.7932 70.478 52.0654 71.9976 51.0084 73.3593L52.583 79.8317C52.8716 81.0183 52.7025 82.1353 52.0756 83.1829C51.4487 84.2304 50.5507 84.8964 49.3817 85.1808L45.1307 86.215C43.9617 86.4994 42.8581 86.3203 41.82 85.6778C40.782 85.0354 40.1186 84.1208 39.8299 82.9342L38.2553 76.4618C36.6909 75.7379 35.3464 74.7225 34.2217 73.4155C33.097 72.1086 32.3247 70.5921 31.9048 68.8661C31.1788 65.8816 31.596 63.0855 33.1567 60.4778C34.7173 57.8701 36.9677 56.2086 39.908 55.4933ZM47.2297 76.3352C46.893 76.4933 46.5518 76.6334 46.2063 76.7555C45.8608 76.8777 45.511 76.9818 45.1567 77.068C44.8025 77.1542 44.4438 77.2224 44.0808 77.2726C43.7178 77.3228 43.3505 77.3551 42.9787 77.3693L44.0809 81.9L48.3319 80.8658L47.2297 76.3352ZM40.9578 59.8083C39.1865 60.2392 37.834 61.2347 36.9003 62.7949C35.9666 64.355 35.7185 66.0341 36.1558 67.8319C36.5932 69.6298 37.585 71.0072 39.131 71.9641C40.6771 72.921 42.3357 73.184 44.107 72.7531C45.8782 72.3222 47.2307 71.3266 48.1644 69.7665C49.0981 68.2063 49.3463 66.5273 48.9089 64.7294C48.4715 62.9315 47.4798 61.5541 45.9337 60.5972C44.3877 59.6403 42.729 59.3774 40.9578 59.8083Z" fill="#F1C953"/>
</g>
<path d="M77.0521 73.8805L72.5514 55.3801L78.3463 53.9703C80.3596 53.4805 82.1952 53.5239 83.8531 54.1003C85.5066 54.6586 86.5915 55.9988 87.1078 58.1209C87.6015 60.2293 87.1988 61.9698 85.8998 63.3424C84.6145 64.6925 82.9925 65.6058 81.0336 66.0824L78.9931 66.5788L80.5618 73.0267L77.0521 73.8805ZM78.9523 56.9351L76.7758 57.4646L78.2849 63.6677L80.5158 63.1249C81.5678 62.869 82.3629 62.4258 82.9012 61.7954C83.435 61.1468 83.6124 60.2968 83.4334 59.2453C83.1422 58.0482 82.6128 57.2933 81.8451 56.9806C81.0774 56.6679 80.1132 56.6527 78.9523 56.9351ZM97.0062 55.05L98.4019 57.7074C97.8034 57.853 97.147 58.1952 96.4328 58.734C95.7367 59.2683 95.0894 59.9637 94.4909 60.8201L96.5162 69.1453L92.9794 70.0057L89.7693 56.8106L91.6193 56.3605L93.2591 58.0076C93.6885 57.4036 94.2447 56.8073 94.9275 56.2185C95.6059 55.6116 96.2988 55.2221 97.0062 55.05ZM108.904 66.4774C106.814 66.9667 105.027 66.7291 103.543 65.7644C102.078 64.7953 101.087 63.2497 100.571 61.1276C100.059 59.0236 100.259 57.1981 101.169 55.6509C102.098 54.0994 103.624 53.0655 105.746 52.5492C107.941 52.0153 109.795 52.2557 111.31 53.2703C112.839 54.2625 113.859 55.8105 114.371 57.9145C114.882 60.0185 114.633 61.8369 113.623 63.3698C112.613 64.9028 111.04 65.9386 108.904 66.4774ZM110.725 58.8014C110.42 57.5499 109.901 56.6389 109.167 56.0683C108.446 55.4752 107.578 55.3022 106.562 55.5493C105.528 55.8008 104.798 56.3145 104.372 57.0906C103.947 57.8666 103.892 58.9075 104.21 60.2134C104.528 61.5194 105.013 62.4483 105.666 63.0002C106.337 63.5478 107.19 63.6958 108.224 63.4443C109.239 63.1972 109.992 62.6971 110.481 61.9442C110.966 61.173 111.047 60.1255 110.725 58.8014ZM133.303 59.9076C133.07 60.214 132.699 60.5059 132.191 60.7834C131.704 61.0746 131.253 61.271 130.835 61.3724C129.203 61.7696 127.816 61.6748 126.674 61.088C125.546 60.4787 124.797 59.4123 124.426 57.8887L122.911 51.6585L121.142 52.0887L120.48 49.368L122.249 48.9378L121.488 45.8091L124.845 44.3295L125.758 48.084L128.153 47.5015L129.903 49.9574L126.42 50.8046L127.784 56.4092C127.951 57.0984 128.254 57.63 128.69 58.004C129.123 58.3599 129.656 58.4606 130.291 58.3062C130.527 58.2488 130.756 58.1643 130.979 58.0525C131.201 57.9407 131.424 57.7905 131.647 57.6017L133.303 59.9076ZM132.465 40.2279C133.028 40.0911 133.546 40.1668 134.019 40.4551C134.511 40.7389 134.825 41.1619 134.962 41.7242C135.099 42.2865 135.014 42.8066 134.707 43.2845C134.419 43.7581 133.994 44.0633 133.432 44.2001C132.888 44.3324 132.379 44.2545 131.905 43.9663C131.432 43.678 131.126 43.2528 130.99 42.6905C130.853 42.1283 130.929 41.6104 131.217 41.1368C131.505 40.6633 131.921 40.3603 132.465 40.2279ZM135.657 45.6471L138.867 58.8422L135.33 59.7027L132.12 46.5075L135.657 45.6471ZM147.676 53.8464C148.891 53.5507 149.637 52.908 149.915 51.9183C150.189 50.9104 150.215 49.953 149.995 49.0461C149.743 48.0123 149.3 47.1402 148.667 46.4299C148.033 45.7196 147.054 45.5255 145.73 45.8477C145.349 45.9403 144.967 46.11 144.586 46.3565C144.217 46.5806 143.881 46.8546 143.575 47.1787L145.151 53.6538C145.566 53.7832 145.991 53.8719 146.426 53.9199C146.878 53.9636 147.295 53.939 147.676 53.8464ZM139.271 44.7677L141.067 44.3309L142.067 45.125C142.555 44.5259 143.165 43.9933 143.897 43.5271C144.629 43.0609 145.303 42.7527 145.92 42.6027C147.861 42.1306 149.511 42.4398 150.872 43.5305C152.232 44.6212 153.155 46.1641 153.64 48.1592C154.126 50.1544 153.997 51.9532 153.253 53.5557C152.528 55.1538 151.222 56.1823 149.335 56.6412C148.864 56.756 148.309 56.8045 147.671 56.7869C147.051 56.7649 146.442 56.6727 145.846 56.5105L147.375 62.7952L143.931 63.9211L139.271 44.7677ZM163.484 50.0005C164.699 49.7048 165.446 49.0621 165.724 48.0724C165.997 47.0645 166.024 46.1071 165.803 45.2003C165.552 44.1664 165.109 43.2943 164.475 42.584C163.841 41.8738 162.862 41.6797 161.538 42.0018C161.157 42.0944 160.776 42.2641 160.394 42.5107C160.026 42.7347 159.689 43.0087 159.384 43.3328L160.959 49.8079C161.375 49.9373 161.8 50.026 162.234 50.0741C162.687 50.1177 163.103 50.0931 163.484 50.0005ZM155.08 40.9218L156.876 40.485L157.876 41.2791C158.364 40.68 158.974 40.1474 159.706 39.6812C160.438 39.215 161.112 38.9069 161.729 38.7568C163.669 38.2847 165.32 38.594 166.68 39.6846C168.041 40.7753 168.963 42.3182 169.449 44.3133C169.934 46.3085 169.805 48.1073 169.061 49.7098C168.336 51.3079 167.03 52.3365 165.144 52.7954C164.672 52.9101 164.117 52.9586 163.479 52.941C162.859 52.919 162.251 52.8268 161.654 52.6646L163.183 58.9493L159.74 60.0752L155.08 40.9218ZM179.319 38.8C178.613 38.6642 177.971 38.59 177.392 38.5772C176.808 38.5464 176.207 38.606 175.591 38.756C175.137 38.8663 174.806 39.043 174.596 39.2862C174.4 39.5068 174.339 39.7712 174.414 40.0796C174.467 40.2972 174.663 40.4705 175.002 40.5994C175.359 40.7239 175.901 40.8225 176.63 40.895C177.833 41.0248 178.995 41.3378 180.114 41.8339C181.23 42.3118 181.926 43.1221 182.204 44.2647C182.522 45.5706 182.298 46.7011 181.531 47.656C180.782 48.6066 179.51 49.3003 177.715 49.7371C177.152 49.8739 176.373 49.9482 175.377 49.96C174.399 49.9674 173.544 49.8103 172.813 49.4887L173.252 46.6732C173.957 46.809 174.62 46.8879 175.24 46.9099C175.874 46.9094 176.436 46.8496 176.926 46.7304C177.579 46.5716 178.055 46.3596 178.356 46.0943C178.656 45.8291 178.771 45.5514 178.701 45.2612C178.612 44.8985 178.361 44.6139 177.945 44.4075C177.53 44.2012 176.922 44.0706 176.121 44.0157C174.985 43.927 173.869 43.68 172.771 43.2746C171.687 42.8467 171.013 42.0886 170.748 41.0003C170.444 39.7488 170.668 38.6569 171.421 37.7245C172.169 36.7739 173.332 36.1067 174.91 35.7228C175.473 35.586 176.227 35.5274 177.173 35.547C178.119 35.5666 178.983 35.7215 179.764 36.0116L179.319 38.8Z" fill="#F1C953"/>
</svg>
