<svg width="158" height="48" viewBox="0 0 158 48" fill="none" xmlns="http://www.w3.org/2000/svg">
<rect width="158" height="48" rx="24" fill="#4EA487"/>
<mask id="mask0_7029_798" style="mask-type:alpha" maskUnits="userSpaceOnUse" x="24" y="8" width="32" height="32">
<rect x="24" y="8" width="32" height="32" fill="#F1C953"/>
</mask>
<g mask="url(#mask0_7029_798)">
<path d="M46.6665 37.3332C45.5554 37.3332 44.6109 36.9443 43.8332 36.1665C43.0554 35.3887 42.6665 34.4443 42.6665 33.3332C42.6665 33.1998 42.6998 32.8887 42.7665 32.3998L33.3998 26.9332C33.0443 27.2665 32.6332 27.5276 32.1665 27.7165C31.6998 27.9054 31.1998 27.9998 30.6665 27.9998C29.5554 27.9998 28.6109 27.6109 27.8332 26.8332C27.0554 26.0554 26.6665 25.1109 26.6665 23.9998C26.6665 22.8887 27.0554 21.9443 27.8332 21.1665C28.6109 20.3887 29.5554 19.9998 30.6665 19.9998C31.1998 19.9998 31.6998 20.0943 32.1665 20.2832C32.6332 20.4721 33.0443 20.7332 33.3998 21.0665L42.7665 15.5998C42.7221 15.4443 42.6943 15.2943 42.6832 15.1498C42.6721 15.0054 42.6665 14.8443 42.6665 14.6665C42.6665 13.5554 43.0554 12.6109 43.8332 11.8332C44.6109 11.0554 45.5554 10.6665 46.6665 10.6665C47.7776 10.6665 48.7221 11.0554 49.4998 11.8332C50.2776 12.6109 50.6665 13.5554 50.6665 14.6665C50.6665 15.7776 50.2776 16.7221 49.4998 17.4998C48.7221 18.2776 47.7776 18.6665 46.6665 18.6665C46.1332 18.6665 45.6332 18.5721 45.1665 18.3832C44.6998 18.1943 44.2887 17.9332 43.9332 17.5998L34.5665 23.0665C34.6109 23.2221 34.6387 23.3721 34.6498 23.5165C34.6609 23.6609 34.6665 23.8221 34.6665 23.9998C34.6665 24.1776 34.6609 24.3387 34.6498 24.4832C34.6387 24.6276 34.6109 24.7776 34.5665 24.9332L43.9332 30.3998C44.2887 30.0665 44.6998 29.8054 45.1665 29.6165C45.6332 29.4276 46.1332 29.3332 46.6665 29.3332C47.7776 29.3332 48.7221 29.7221 49.4998 30.4998C50.2776 31.2776 50.6665 32.2221 50.6665 33.3332C50.6665 34.4443 50.2776 35.3887 49.4998 36.1665C48.7221 36.9443 47.7776 37.3332 46.6665 37.3332ZM46.6665 34.6665C47.0443 34.6665 47.361 34.5387 47.6165 34.2832C47.8721 34.0276 47.9998 33.7109 47.9998 33.3332C47.9998 32.9554 47.8721 32.6387 47.6165 32.3832C47.361 32.1276 47.0443 31.9998 46.6665 31.9998C46.2887 31.9998 45.9721 32.1276 45.7165 32.3832C45.4609 32.6387 45.3332 32.9554 45.3332 33.3332C45.3332 33.7109 45.4609 34.0276 45.7165 34.2832C45.9721 34.5387 46.2887 34.6665 46.6665 34.6665ZM30.6665 25.3332C31.0443 25.3332 31.3609 25.2054 31.6165 24.9498C31.8721 24.6943 31.9998 24.3776 31.9998 23.9998C31.9998 23.6221 31.8721 23.3054 31.6165 23.0498C31.3609 22.7943 31.0443 22.6665 30.6665 22.6665C30.2887 22.6665 29.9721 22.7943 29.7165 23.0498C29.4609 23.3054 29.3332 23.6221 29.3332 23.9998C29.3332 24.3776 29.4609 24.6943 29.7165 24.9498C29.9721 25.2054 30.2887 25.3332 30.6665 25.3332ZM46.6665 15.9998C47.0443 15.9998 47.361 15.8721 47.6165 15.6165C47.8721 15.3609 47.9998 15.0443 47.9998 14.6665C47.9998 14.2887 47.8721 13.9721 47.6165 13.7165C47.361 13.4609 47.0443 13.3332 46.6665 13.3332C46.2887 13.3332 45.9721 13.4609 45.7165 13.7165C45.4609 13.9721 45.3332 14.2887 45.3332 14.6665C45.3332 15.0443 45.4609 15.3609 45.7165 15.6165C45.9721 15.8721 46.2887 15.9998 46.6665 15.9998Z" fill="#F1C953"/>
</g>
<path d="M70.552 30.86C69.256 30.86 68.184 30.716 67.336 30.428C66.488 30.124 65.856 29.716 65.44 29.204C65.024 28.692 64.816 28.116 64.816 27.476C64.816 27.108 64.896 26.772 65.056 26.468C65.232 26.164 65.52 25.94 65.92 25.796C66.32 25.636 66.872 25.612 67.576 25.724C67.528 25.916 67.504 26.124 67.504 26.348C67.52 26.572 67.544 26.788 67.576 26.996C67.656 27.412 67.824 27.828 68.08 28.244C68.336 28.66 68.704 29.004 69.184 29.276C69.68 29.548 70.296 29.684 71.032 29.684C71.736 29.684 72.344 29.492 72.856 29.108C73.368 28.708 73.624 28.092 73.624 27.26C73.624 26.716 73.504 26.244 73.264 25.844C73.024 25.444 72.656 25.068 72.16 24.716C71.68 24.364 71.08 23.988 70.36 23.588C69.336 22.996 68.456 22.436 67.72 21.908C66.984 21.364 66.416 20.764 66.016 20.108C65.616 19.436 65.416 18.636 65.416 17.708C65.416 16.668 65.68 15.836 66.208 15.212C66.736 14.588 67.432 14.132 68.296 13.844C69.176 13.556 70.128 13.412 71.152 13.412C72.672 13.412 73.912 13.644 74.872 14.108C75.832 14.556 76.312 15.252 76.312 16.196C76.312 16.596 76.184 16.948 75.928 17.252C75.688 17.556 75.24 17.716 74.584 17.732C74.312 17.764 74.008 17.748 73.672 17.684C73.688 17.428 73.672 17.18 73.624 16.94C73.592 16.684 73.536 16.452 73.456 16.244C73.376 15.94 73.224 15.66 73 15.404C72.792 15.148 72.504 14.94 72.136 14.78C71.768 14.62 71.312 14.54 70.768 14.54C70.448 14.54 70.112 14.596 69.76 14.708C69.408 14.82 69.112 15.02 68.872 15.308C68.632 15.596 68.512 16.004 68.512 16.532C68.512 17.012 68.616 17.452 68.824 17.852C69.032 18.252 69.4 18.66 69.928 19.076C70.472 19.476 71.232 19.948 72.208 20.492C72.96 20.892 73.688 21.34 74.392 21.836C75.112 22.332 75.704 22.924 76.168 23.612C76.632 24.284 76.864 25.108 76.864 26.084C76.864 26.74 76.736 27.356 76.48 27.932C76.224 28.508 75.832 29.02 75.304 29.468C74.776 29.9 74.112 30.244 73.312 30.5C72.528 30.74 71.608 30.86 70.552 30.86ZM82.3206 30.86C81.7766 30.86 81.3206 30.692 80.9526 30.356C80.5846 30.02 80.4006 29.564 80.4006 28.988V14.612C80.3846 14.068 80.5206 13.66 80.8086 13.388C81.1126 13.116 81.4886 12.964 81.9366 12.932C82.4486 12.884 82.9126 12.956 83.3286 13.148C83.7446 13.34 84.0326 13.5 84.1926 13.628C83.9526 14.412 83.8006 15.292 83.7366 16.268C83.6726 17.228 83.6326 18.308 83.6166 19.508V21.596L83.0646 22.34C83.1926 21.38 83.4166 20.564 83.7366 19.892C84.0726 19.204 84.5286 18.676 85.1046 18.308C85.6806 17.94 86.3926 17.756 87.2406 17.756C88.5686 17.756 89.5446 18.156 90.1686 18.956C90.7926 19.756 91.1046 20.956 91.1046 22.556V26.996C91.1046 27.348 91.1286 27.828 91.1766 28.436C91.2406 29.028 91.3766 29.588 91.5846 30.116C91.3766 30.308 91.1126 30.476 90.7926 30.62C90.4886 30.78 90.1286 30.86 89.7126 30.86C89.1686 30.86 88.7126 30.708 88.3446 30.404C87.9926 30.1 87.8166 29.684 87.8166 29.156V23.084C87.8166 21.868 87.7046 20.932 87.4806 20.276C87.2726 19.604 86.8166 19.268 86.1126 19.268C85.7446 19.268 85.4086 19.388 85.1046 19.628C84.8006 19.852 84.5366 20.204 84.3126 20.684C84.1046 21.148 83.9366 21.732 83.8086 22.436C83.6966 23.124 83.6406 23.932 83.6406 24.86C83.6406 25.644 83.6406 26.3 83.6406 26.828C83.6566 27.356 83.6806 27.812 83.7126 28.196C83.7446 28.564 83.7926 28.9 83.8566 29.204C83.9366 29.508 84.0486 29.82 84.1926 30.14C84.0486 30.268 83.8166 30.42 83.4966 30.596C83.1766 30.772 82.7846 30.86 82.3206 30.86ZM104.96 30.74C104.128 30.74 103.472 30.444 102.992 29.852C102.528 29.244 102.296 28.172 102.296 26.636V25.724L102.872 25.844C102.712 26.724 102.408 27.54 101.96 28.292C101.512 29.028 100.936 29.62 100.232 30.068C99.5276 30.516 98.6956 30.74 97.7356 30.74C96.8236 30.74 96.0636 30.5 95.4556 30.02C94.8636 29.54 94.5676 28.836 94.5676 27.908C94.5676 27.14 94.7756 26.492 95.1916 25.964C95.6236 25.42 96.1596 24.98 96.7996 24.644C97.4556 24.308 98.1116 24.044 98.7676 23.852C99.4076 23.676 100.008 23.556 100.568 23.492C101.144 23.412 101.656 23.364 102.104 23.348V22.748C102.104 21.452 101.96 20.476 101.672 19.82C101.384 19.164 100.864 18.836 100.112 18.836C99.8076 18.836 99.5276 18.9 99.2716 19.028C99.0316 19.14 98.8396 19.324 98.6956 19.58C98.5676 19.836 98.5036 20.18 98.5036 20.612C98.5036 20.932 98.5596 21.26 98.6716 21.596C98.7836 21.932 99.0076 22.196 99.3436 22.388C99.1516 22.58 98.8956 22.724 98.5756 22.82C98.2716 22.916 97.9436 22.964 97.5916 22.964C96.8076 22.964 96.1996 22.748 95.7676 22.316C95.3516 21.884 95.1436 21.356 95.1436 20.732C95.1436 19.772 95.6076 19.036 96.5356 18.524C97.4796 18.012 98.7356 17.756 100.304 17.756C102.096 17.756 103.408 18.156 104.24 18.956C105.072 19.756 105.488 21.092 105.488 22.964V27.02C105.488 27.868 105.752 28.292 106.28 28.292C106.36 28.292 106.464 28.268 106.592 28.22C106.736 28.172 106.848 28.092 106.928 27.98C107.04 28.14 107.12 28.316 107.168 28.508C107.216 28.7 107.24 28.868 107.24 29.012C107.24 29.476 107.032 29.884 106.616 30.236C106.216 30.572 105.664 30.74 104.96 30.74ZM99.4636 28.604C99.7676 28.572 100.08 28.452 100.4 28.244C100.72 28.02 101.016 27.724 101.288 27.356C101.56 26.972 101.776 26.532 101.936 26.036C102.112 25.54 102.2 24.996 102.2 24.404C101.896 24.404 101.584 24.42 101.264 24.452C100.944 24.468 100.632 24.516 100.328 24.596C100.04 24.676 99.7676 24.788 99.5116 24.932C99.1276 25.14 98.8076 25.436 98.5516 25.82C98.3116 26.188 98.1916 26.612 98.1916 27.092C98.1916 27.492 98.2876 27.86 98.4796 28.196C98.6876 28.516 99.0156 28.652 99.4636 28.604ZM112.198 30.764C111.702 30.764 111.254 30.604 110.854 30.284C110.47 29.948 110.278 29.484 110.278 28.892V21.476C110.278 21.012 110.222 20.684 110.11 20.492C110.014 20.3 109.862 20.204 109.654 20.204C109.574 20.204 109.47 20.22 109.342 20.252C109.214 20.284 109.11 20.364 109.03 20.492C108.822 20.172 108.718 19.828 108.718 19.46C108.718 18.964 108.886 18.556 109.222 18.236C109.558 17.916 110.046 17.756 110.686 17.756C111.454 17.756 112.062 18.028 112.51 18.572C112.974 19.116 113.19 19.956 113.158 21.092V21.716L112.87 21.476C113.094 20.212 113.486 19.276 114.046 18.668C114.622 18.06 115.374 17.756 116.302 17.756C117.214 17.756 117.958 18.004 118.534 18.5C119.126 18.98 119.422 19.652 119.422 20.516C119.422 21.14 119.23 21.66 118.846 22.076C118.462 22.476 117.982 22.684 117.406 22.7C116.702 22.7 116.198 22.524 115.894 22.172C116.07 21.852 116.182 21.58 116.23 21.356C116.294 21.116 116.326 20.836 116.326 20.516C116.326 20.116 116.246 19.812 116.086 19.604C115.926 19.38 115.678 19.268 115.342 19.268C114.974 19.268 114.654 19.476 114.382 19.892C114.11 20.292 113.902 20.908 113.758 21.74C113.614 22.572 113.542 23.612 113.542 24.86C113.542 25.612 113.542 26.252 113.542 26.78C113.558 27.292 113.582 27.732 113.614 28.1C113.646 28.468 113.694 28.804 113.758 29.108C113.838 29.412 113.95 29.724 114.094 30.044C113.95 30.172 113.71 30.324 113.374 30.5C113.054 30.66 112.662 30.748 112.198 30.764ZM127.486 30.836C125.63 30.836 124.142 30.268 123.022 29.132C121.918 27.98 121.366 26.356 121.366 24.26C121.366 22.244 121.894 20.66 122.95 19.508C124.006 18.34 125.526 17.756 127.51 17.756C128.438 17.756 129.27 17.892 130.006 18.164C130.758 18.436 131.35 18.844 131.782 19.388C132.23 19.916 132.454 20.588 132.454 21.404C132.454 22.588 131.974 23.5 131.014 24.14C130.054 24.764 128.814 25.076 127.294 25.076C126.654 25.076 125.966 25.06 125.23 25.028C124.51 24.98 123.726 24.852 122.878 24.644L122.974 23.66C123.31 23.692 123.654 23.732 124.006 23.78C124.374 23.828 124.822 23.86 125.35 23.876C125.702 23.876 126.078 23.852 126.478 23.804C126.894 23.756 127.286 23.636 127.654 23.444C128.022 23.236 128.318 22.932 128.542 22.532C128.782 22.116 128.902 21.556 128.902 20.852C128.902 20.308 128.83 19.9 128.686 19.628C128.542 19.34 128.35 19.14 128.11 19.028C127.886 18.916 127.646 18.86 127.39 18.86C126.606 18.86 125.99 19.3 125.542 20.18C125.11 21.06 124.894 22.276 124.894 23.828C124.894 25.06 125.03 26.044 125.302 26.78C125.574 27.5 125.974 28.02 126.502 28.34C127.03 28.644 127.67 28.796 128.422 28.796C129.318 28.796 130.046 28.62 130.606 28.268C131.182 27.916 131.598 27.492 131.854 26.996C132.03 27.06 132.15 27.196 132.214 27.404C132.294 27.612 132.246 27.94 132.07 28.388C131.766 29.172 131.206 29.78 130.39 30.212C129.59 30.628 128.622 30.836 127.486 30.836Z" fill="#F1C953"/>
</svg>
