<svg width="118" height="48" viewBox="0 0 118 48" fill="none" xmlns="http://www.w3.org/2000/svg">
<rect width="118" height="48" rx="24" fill="#4EA487"/>
<path d="M30.552 30.86C29.256 30.86 28.184 30.716 27.336 30.428C26.488 30.124 25.856 29.716 25.44 29.204C25.024 28.692 24.816 28.116 24.816 27.476C24.816 27.108 24.896 26.772 25.056 26.468C25.232 26.164 25.52 25.94 25.92 25.796C26.32 25.636 26.872 25.612 27.576 25.724C27.528 25.916 27.504 26.124 27.504 26.348C27.52 26.572 27.544 26.788 27.576 26.996C27.656 27.412 27.824 27.828 28.08 28.244C28.336 28.66 28.704 29.004 29.184 29.276C29.68 29.548 30.296 29.684 31.032 29.684C31.736 29.684 32.344 29.492 32.856 29.108C33.368 28.708 33.624 28.092 33.624 27.26C33.624 26.716 33.504 26.244 33.264 25.844C33.024 25.444 32.656 25.068 32.16 24.716C31.68 24.364 31.08 23.988 30.36 23.588C29.336 22.996 28.456 22.436 27.72 21.908C26.984 21.364 26.416 20.764 26.016 20.108C25.616 19.436 25.416 18.636 25.416 17.708C25.416 16.668 25.68 15.836 26.208 15.212C26.736 14.588 27.432 14.132 28.296 13.844C29.176 13.556 30.128 13.412 31.152 13.412C32.672 13.412 33.912 13.644 34.872 14.108C35.832 14.556 36.312 15.252 36.312 16.196C36.312 16.596 36.184 16.948 35.928 17.252C35.688 17.556 35.24 17.716 34.584 17.732C34.312 17.764 34.008 17.748 33.672 17.684C33.688 17.428 33.672 17.18 33.624 16.94C33.592 16.684 33.536 16.452 33.456 16.244C33.376 15.94 33.224 15.66 33 15.404C32.792 15.148 32.504 14.94 32.136 14.78C31.768 14.62 31.312 14.54 30.768 14.54C30.448 14.54 30.112 14.596 29.76 14.708C29.408 14.82 29.112 15.02 28.872 15.308C28.632 15.596 28.512 16.004 28.512 16.532C28.512 17.012 28.616 17.452 28.824 17.852C29.032 18.252 29.4 18.66 29.928 19.076C30.472 19.476 31.232 19.948 32.208 20.492C32.96 20.892 33.688 21.34 34.392 21.836C35.112 22.332 35.704 22.924 36.168 23.612C36.632 24.284 36.864 25.108 36.864 26.084C36.864 26.74 36.736 27.356 36.48 27.932C36.224 28.508 35.832 29.02 35.304 29.468C34.776 29.9 34.112 30.244 33.312 30.5C32.528 30.74 31.608 30.86 30.552 30.86ZM42.3206 30.86C41.7766 30.86 41.3206 30.692 40.9526 30.356C40.5846 30.02 40.4006 29.564 40.4006 28.988V14.612C40.3846 14.068 40.5206 13.66 40.8086 13.388C41.1126 13.116 41.4886 12.964 41.9366 12.932C42.4486 12.884 42.9126 12.956 43.3286 13.148C43.7446 13.34 44.0326 13.5 44.1926 13.628C43.9526 14.412 43.8006 15.292 43.7366 16.268C43.6726 17.228 43.6326 18.308 43.6166 19.508V21.596L43.0646 22.34C43.1926 21.38 43.4166 20.564 43.7366 19.892C44.0726 19.204 44.5286 18.676 45.1046 18.308C45.6806 17.94 46.3926 17.756 47.2406 17.756C48.5686 17.756 49.5446 18.156 50.1686 18.956C50.7926 19.756 51.1046 20.956 51.1046 22.556V26.996C51.1046 27.348 51.1286 27.828 51.1766 28.436C51.2406 29.028 51.3766 29.588 51.5846 30.116C51.3766 30.308 51.1126 30.476 50.7926 30.62C50.4886 30.78 50.1286 30.86 49.7126 30.86C49.1686 30.86 48.7126 30.708 48.3446 30.404C47.9926 30.1 47.8166 29.684 47.8166 29.156V23.084C47.8166 21.868 47.7046 20.932 47.4806 20.276C47.2726 19.604 46.8166 19.268 46.1126 19.268C45.7446 19.268 45.4086 19.388 45.1046 19.628C44.8006 19.852 44.5366 20.204 44.3126 20.684C44.1046 21.148 43.9366 21.732 43.8086 22.436C43.6966 23.124 43.6406 23.932 43.6406 24.86C43.6406 25.644 43.6406 26.3 43.6406 26.828C43.6566 27.356 43.6806 27.812 43.7126 28.196C43.7446 28.564 43.7926 28.9 43.8566 29.204C43.9366 29.508 44.0486 29.82 44.1926 30.14C44.0486 30.268 43.8166 30.42 43.4966 30.596C43.1766 30.772 42.7846 30.86 42.3206 30.86ZM64.9596 30.74C64.1276 30.74 63.4716 30.444 62.9916 29.852C62.5276 29.244 62.2956 28.172 62.2956 26.636V25.724L62.8716 25.844C62.7116 26.724 62.4076 27.54 61.9596 28.292C61.5116 29.028 60.9356 29.62 60.2316 30.068C59.5276 30.516 58.6956 30.74 57.7356 30.74C56.8236 30.74 56.0636 30.5 55.4556 30.02C54.8636 29.54 54.5676 28.836 54.5676 27.908C54.5676 27.14 54.7756 26.492 55.1916 25.964C55.6236 25.42 56.1596 24.98 56.7996 24.644C57.4556 24.308 58.1116 24.044 58.7676 23.852C59.4076 23.676 60.0076 23.556 60.5676 23.492C61.1436 23.412 61.6556 23.364 62.1036 23.348V22.748C62.1036 21.452 61.9596 20.476 61.6716 19.82C61.3836 19.164 60.8636 18.836 60.1116 18.836C59.8076 18.836 59.5276 18.9 59.2716 19.028C59.0316 19.14 58.8396 19.324 58.6956 19.58C58.5676 19.836 58.5036 20.18 58.5036 20.612C58.5036 20.932 58.5596 21.26 58.6716 21.596C58.7836 21.932 59.0076 22.196 59.3436 22.388C59.1516 22.58 58.8956 22.724 58.5756 22.82C58.2716 22.916 57.9436 22.964 57.5916 22.964C56.8076 22.964 56.1996 22.748 55.7676 22.316C55.3516 21.884 55.1436 21.356 55.1436 20.732C55.1436 19.772 55.6076 19.036 56.5356 18.524C57.4796 18.012 58.7356 17.756 60.3036 17.756C62.0956 17.756 63.4076 18.156 64.2396 18.956C65.0716 19.756 65.4876 21.092 65.4876 22.964V27.02C65.4876 27.868 65.7516 28.292 66.2796 28.292C66.3596 28.292 66.4636 28.268 66.5916 28.22C66.7356 28.172 66.8476 28.092 66.9276 27.98C67.0396 28.14 67.1196 28.316 67.1676 28.508C67.2156 28.7 67.2396 28.868 67.2396 29.012C67.2396 29.476 67.0316 29.884 66.6156 30.236C66.2156 30.572 65.6636 30.74 64.9596 30.74ZM59.4636 28.604C59.7676 28.572 60.0796 28.452 60.3996 28.244C60.7196 28.02 61.0156 27.724 61.2876 27.356C61.5596 26.972 61.7756 26.532 61.9356 26.036C62.1116 25.54 62.1996 24.996 62.1996 24.404C61.8956 24.404 61.5836 24.42 61.2636 24.452C60.9436 24.468 60.6316 24.516 60.3276 24.596C60.0396 24.676 59.7676 24.788 59.5116 24.932C59.1276 25.14 58.8076 25.436 58.5516 25.82C58.3116 26.188 58.1916 26.612 58.1916 27.092C58.1916 27.492 58.2876 27.86 58.4796 28.196C58.6876 28.516 59.0156 28.652 59.4636 28.604ZM72.1978 30.764C71.7018 30.764 71.2538 30.604 70.8538 30.284C70.4698 29.948 70.2778 29.484 70.2778 28.892V21.476C70.2778 21.012 70.2218 20.684 70.1098 20.492C70.0138 20.3 69.8618 20.204 69.6538 20.204C69.5738 20.204 69.4698 20.22 69.3418 20.252C69.2138 20.284 69.1098 20.364 69.0298 20.492C68.8218 20.172 68.7178 19.828 68.7178 19.46C68.7178 18.964 68.8858 18.556 69.2218 18.236C69.5578 17.916 70.0458 17.756 70.6858 17.756C71.4538 17.756 72.0618 18.028 72.5098 18.572C72.9738 19.116 73.1898 19.956 73.1578 21.092V21.716L72.8698 21.476C73.0938 20.212 73.4858 19.276 74.0458 18.668C74.6218 18.06 75.3738 17.756 76.3018 17.756C77.2138 17.756 77.9578 18.004 78.5338 18.5C79.1258 18.98 79.4218 19.652 79.4218 20.516C79.4218 21.14 79.2298 21.66 78.8458 22.076C78.4618 22.476 77.9818 22.684 77.4058 22.7C76.7018 22.7 76.1978 22.524 75.8938 22.172C76.0698 21.852 76.1818 21.58 76.2298 21.356C76.2938 21.116 76.3258 20.836 76.3258 20.516C76.3258 20.116 76.2458 19.812 76.0858 19.604C75.9258 19.38 75.6778 19.268 75.3418 19.268C74.9738 19.268 74.6538 19.476 74.3818 19.892C74.1098 20.292 73.9018 20.908 73.7578 21.74C73.6138 22.572 73.5418 23.612 73.5418 24.86C73.5418 25.612 73.5418 26.252 73.5418 26.78C73.5578 27.292 73.5818 27.732 73.6138 28.1C73.6458 28.468 73.6938 28.804 73.7578 29.108C73.8378 29.412 73.9498 29.724 74.0938 30.044C73.9498 30.172 73.7098 30.324 73.3738 30.5C73.0538 30.66 72.6618 30.748 72.1978 30.764ZM87.486 30.836C85.63 30.836 84.142 30.268 83.022 29.132C81.918 27.98 81.366 26.356 81.366 24.26C81.366 22.244 81.894 20.66 82.95 19.508C84.006 18.34 85.526 17.756 87.51 17.756C88.438 17.756 89.27 17.892 90.006 18.164C90.758 18.436 91.35 18.844 91.782 19.388C92.23 19.916 92.454 20.588 92.454 21.404C92.454 22.588 91.974 23.5 91.014 24.14C90.054 24.764 88.814 25.076 87.294 25.076C86.654 25.076 85.966 25.06 85.23 25.028C84.51 24.98 83.726 24.852 82.878 24.644L82.974 23.66C83.31 23.692 83.654 23.732 84.006 23.78C84.374 23.828 84.822 23.86 85.35 23.876C85.702 23.876 86.078 23.852 86.478 23.804C86.894 23.756 87.286 23.636 87.654 23.444C88.022 23.236 88.318 22.932 88.542 22.532C88.782 22.116 88.902 21.556 88.902 20.852C88.902 20.308 88.83 19.9 88.686 19.628C88.542 19.34 88.35 19.14 88.11 19.028C87.886 18.916 87.646 18.86 87.39 18.86C86.606 18.86 85.99 19.3 85.542 20.18C85.11 21.06 84.894 22.276 84.894 23.828C84.894 25.06 85.03 26.044 85.302 26.78C85.574 27.5 85.974 28.02 86.502 28.34C87.03 28.644 87.67 28.796 88.422 28.796C89.318 28.796 90.046 28.62 90.606 28.268C91.182 27.916 91.598 27.492 91.854 26.996C92.03 27.06 92.15 27.196 92.214 27.404C92.294 27.612 92.246 27.94 92.07 28.388C91.766 29.172 91.206 29.78 90.39 30.212C89.59 30.628 88.622 30.836 87.486 30.836Z" fill="#F1C953"/>
</svg>
