<svg width="182" height="182" viewBox="0 0 182 182" fill="none" xmlns="http://www.w3.org/2000/svg">
<g filter="url(#filter0_d_3061_641)">
<circle cx="92.8" cy="86.8" r="80" fill="#4EA487"/>
<path d="M91.4159 148.276C91.3487 148.848 91.084 149.365 90.6217 149.826C90.1594 150.287 89.5575 150.657 88.8161 150.935C88.0958 151.215 87.2888 151.411 86.3952 151.521C85.5017 151.63 84.5887 151.631 83.6565 151.521C80.9868 151.208 79.0155 149.977 77.7425 147.83C76.4696 145.683 76.0495 142.766 76.4824 139.08C76.9153 135.393 78.0102 132.654 79.7671 130.863C81.5452 129.074 83.8008 128.34 86.534 128.661C87.3815 128.76 88.1873 128.941 88.9514 129.202C89.7154 129.464 90.3766 129.778 90.9351 130.144C91.5147 130.513 91.9504 130.918 92.2421 131.361C92.555 131.806 92.6829 132.272 92.6257 132.759C92.5759 133.183 92.3286 133.551 91.8837 133.864C91.4414 134.156 90.8519 134.237 90.1153 134.108C90.0901 132.859 89.7533 131.885 89.1051 131.186C88.4805 130.468 87.5856 130.041 86.4203 129.904C84.5981 129.69 83.1202 130.386 81.9864 131.993C80.8551 133.579 80.0904 136.066 79.6924 139.457C79.2943 142.847 79.4501 145.453 80.1596 147.276C80.8929 149.081 82.16 150.089 83.9609 150.3C84.7237 150.39 85.4415 150.313 86.1145 150.07C86.8086 149.829 87.4155 149.417 87.9351 148.834C88.4783 148.232 88.8907 147.464 89.1721 146.53C89.5797 146.535 89.9586 146.601 90.3088 146.728C90.659 146.855 90.937 147.049 91.1427 147.309C91.3721 147.551 91.4631 147.873 91.4159 148.276ZM111.633 149.541C110.698 149.76 109.906 149.606 109.257 149.078C108.628 148.546 108.144 147.553 107.803 146.099L107.219 143.607L107.901 143.71C107.855 145.014 107.604 146.234 107.148 147.37C106.686 148.486 106.043 149.437 105.219 150.221C104.39 150.985 103.404 151.501 102.262 151.769C101.057 152.051 100.026 151.953 99.1692 151.474C98.3073 150.975 97.7474 150.175 97.4895 149.074C97.2803 148.181 97.3263 147.348 97.6276 146.577C97.9497 145.8 98.4518 145.091 99.1341 144.449C99.8164 143.807 100.604 143.239 101.496 142.745C102.315 142.313 103.161 141.95 104.035 141.658C104.908 141.366 105.711 141.145 106.443 140.995L106.261 140.216C105.842 138.43 105.248 137.156 104.478 136.394C103.703 135.611 102.64 135.378 101.29 135.695C100.813 135.806 100.352 135.991 99.9082 136.248C99.4853 136.501 99.1619 136.85 98.9379 137.297C98.7298 137.718 98.7012 138.251 98.852 138.895C98.9444 139.29 99.1377 139.694 99.4316 140.107C99.7415 140.494 100.157 140.726 100.679 140.801C100.529 141.098 100.322 141.333 100.055 141.505C99.7837 141.657 99.4923 141.769 99.1807 141.842C98.4122 142.022 97.7337 141.885 97.1454 141.431C96.573 140.952 96.2041 140.359 96.0386 139.653C95.7516 138.427 96.0831 137.363 97.0331 136.462C97.9832 135.56 99.3929 134.89 101.262 134.452C103.443 133.941 105.172 134.117 106.447 134.98C107.739 135.816 108.655 137.388 109.195 139.693L110.61 145.738C110.868 146.839 111.361 147.304 112.088 147.134C112.233 147.099 112.39 147.019 112.557 146.892C112.74 146.74 112.87 146.545 112.946 146.308C113.114 146.466 113.241 146.633 113.327 146.81C113.428 146.962 113.498 147.121 113.537 147.287C113.649 147.765 113.526 148.221 113.167 148.655C112.809 149.09 112.297 149.385 111.633 149.541ZM103.149 149.523C103.705 149.371 104.245 149.058 104.77 148.585C105.289 148.09 105.73 147.494 106.093 146.796C106.455 146.097 106.704 145.338 106.841 144.517C106.977 143.696 106.958 142.868 106.785 142.033C106.302 142.124 105.785 142.256 105.234 142.429C104.699 142.576 104.173 142.765 103.658 142.995C103.163 143.22 102.729 143.475 102.358 143.76C101.579 144.271 101.017 144.863 100.67 145.535C100.324 146.208 100.243 146.939 100.428 147.728C100.569 148.331 100.864 148.842 101.313 149.263C101.758 149.663 102.37 149.749 103.149 149.523ZM118.84 127.445C119.788 126.829 120.7 126.53 121.576 126.547C122.44 126.546 123.251 126.758 124.009 127.181C124.767 127.605 125.464 128.17 126.1 128.876C126.742 129.553 127.307 130.267 127.795 131.019C129.397 133.489 130.129 135.735 129.991 137.757C129.871 139.767 128.925 141.347 127.153 142.496C126.259 143.077 125.382 143.391 124.523 143.44C123.683 143.476 122.925 143.269 122.25 142.816L124.096 145.662C124.34 146.038 124.639 146.48 124.993 146.987C125.366 147.483 125.747 147.973 126.138 148.457C126.557 148.948 126.934 149.352 127.267 149.669C127.23 149.847 127.126 150.079 126.957 150.367C126.817 150.661 126.577 150.918 126.237 151.139C125.825 151.406 125.404 151.501 124.973 151.425C124.554 151.366 124.216 151.14 123.961 150.746L114.009 135.346C113.684 134.844 113.404 134.53 113.169 134.403C112.923 134.258 112.656 134.278 112.37 134.464C112.28 134.522 112.175 134.615 112.055 134.744C111.936 134.873 111.889 135.056 111.915 135.293C111.704 135.201 111.519 135.092 111.36 134.966C111.202 134.84 111.082 134.714 111.001 134.589C110.746 134.195 110.698 133.768 110.858 133.309C111.017 132.849 111.348 132.457 111.849 132.132C112.672 131.598 113.477 131.546 114.265 131.976C115.059 132.376 115.827 133.149 116.57 134.295L118.033 136.55L117.564 137.121C117.068 136.121 116.71 135.158 116.491 134.232C116.278 133.276 116.212 132.391 116.294 131.575C116.381 130.73 116.631 129.958 117.042 129.259C117.453 128.56 118.052 127.955 118.84 127.445ZM119.109 129.33C118.483 129.736 118.041 130.29 117.783 130.991C117.544 131.68 117.469 132.466 117.558 133.349C117.654 134.202 117.885 135.107 118.252 136.065C118.625 136.992 119.107 137.913 119.7 138.826C120.117 139.47 120.557 140.049 121.018 140.564C121.467 141.061 121.939 141.454 122.432 141.745C122.932 142.005 123.454 142.124 123.999 142.102C124.543 142.079 125.111 141.876 125.702 141.493C126.919 140.703 127.483 139.574 127.395 138.106C127.295 136.619 126.561 134.82 125.191 132.708C124.773 132.064 124.331 131.461 123.864 130.899C123.404 130.307 122.919 129.833 122.409 129.478C121.905 129.093 121.381 128.873 120.837 128.819C120.294 128.765 119.717 128.935 119.109 129.33ZM131.153 116.101C131.837 115.201 132.594 114.61 133.423 114.329C134.236 114.035 135.07 113.959 135.927 114.101C136.784 114.243 137.631 114.538 138.469 114.987C139.303 115.406 140.076 115.887 140.79 116.429C143.134 118.209 144.584 120.074 145.14 122.023C145.708 123.955 145.354 125.762 144.076 127.444C143.431 128.293 142.713 128.886 141.921 129.223C141.143 129.542 140.359 129.604 139.571 129.407L142.272 131.459C142.629 131.73 143.06 132.044 143.566 132.401C144.084 132.741 144.609 133.073 145.141 133.396C145.702 133.715 146.193 133.968 146.614 134.154C146.639 134.333 146.62 134.587 146.559 134.915C146.527 135.239 146.388 135.563 146.143 135.886C145.846 136.276 145.482 136.509 145.051 136.583C144.636 136.67 144.242 136.572 143.869 136.288L129.287 125.171C128.811 124.81 128.441 124.609 128.177 124.569C127.895 124.516 127.651 124.626 127.445 124.898C127.38 124.983 127.314 125.106 127.244 125.268C127.175 125.429 127.193 125.617 127.298 125.831C127.068 125.817 126.857 125.777 126.666 125.712C126.474 125.647 126.319 125.569 126.2 125.479C125.826 125.195 125.636 124.81 125.631 124.323C125.625 123.837 125.803 123.356 126.164 122.88C126.758 122.099 127.498 121.777 128.385 121.915C129.267 122.022 130.252 122.489 131.34 123.315L133.48 124.941L133.233 125.637C132.427 124.864 131.764 124.079 131.244 123.282C130.72 122.456 130.358 121.645 130.158 120.85C129.954 120.025 129.927 119.215 130.077 118.418C130.226 117.621 130.585 116.848 131.153 116.101ZM132.045 117.783C131.594 118.378 131.366 119.048 131.361 119.795C131.369 120.525 131.565 121.29 131.949 122.09C132.328 122.86 132.852 123.634 133.522 124.41C134.187 125.156 134.953 125.859 135.819 126.517C136.431 126.981 137.041 127.378 137.649 127.706C138.24 128.021 138.817 128.231 139.379 128.337C139.938 128.413 140.47 128.348 140.974 128.142C141.479 127.936 141.944 127.553 142.37 126.992C143.248 125.837 143.396 124.583 142.815 123.231C142.218 121.867 140.917 120.423 138.912 118.9C138.301 118.436 137.68 118.018 137.051 117.647C136.418 117.247 135.801 116.966 135.2 116.804C134.595 116.613 134.028 116.584 133.498 116.717C132.968 116.85 132.484 117.206 132.045 117.783ZM156.288 102.782C156 103.698 155.463 104.3 154.679 104.59C153.9 104.859 152.799 104.769 151.375 104.321L148.933 103.551L149.37 103.018C150.468 103.722 151.389 104.56 152.134 105.533C152.858 106.499 153.348 107.537 153.602 108.646C153.836 109.749 153.777 110.859 153.424 111.979C153.052 113.159 152.442 113.995 151.593 114.488C150.724 114.975 149.751 115.048 148.672 114.709C147.797 114.433 147.105 113.969 146.595 113.316C146.091 112.643 145.737 111.849 145.533 110.935C145.329 110.021 145.242 109.054 145.273 108.035C145.318 107.109 145.438 106.197 145.632 105.296C145.827 104.395 146.046 103.592 146.291 102.887L145.528 102.646C143.778 102.095 142.379 101.956 141.331 102.23C140.263 102.497 139.52 103.292 139.103 104.614C138.956 105.082 138.88 105.573 138.875 106.086C138.876 106.578 139.012 107.035 139.282 107.455C139.538 107.849 139.981 108.146 140.612 108.344C140.999 108.466 141.445 108.506 141.95 108.464C142.442 108.395 142.852 108.156 143.183 107.745C143.363 108.026 143.459 108.324 143.471 108.641C143.463 108.952 143.411 109.26 143.314 109.565C143.077 110.318 142.613 110.831 141.923 111.106C141.219 111.354 140.52 111.369 139.829 111.151C138.628 110.772 137.882 109.945 137.591 108.667C137.3 107.39 137.443 105.836 138.02 104.005C138.694 101.868 139.726 100.472 141.119 99.8144C142.498 99.1304 144.316 99.1442 146.575 99.8558L152.496 101.721C153.574 102.061 154.226 101.875 154.45 101.163C154.495 101.02 154.505 100.845 154.482 100.636C154.444 100.401 154.343 100.19 154.178 100.003C154.399 99.9391 154.608 99.9154 154.804 99.9324C154.986 99.9226 155.159 99.9434 155.321 99.9947C155.789 100.142 156.119 100.481 156.31 101.011C156.501 101.541 156.493 102.131 156.288 102.782ZM151.945 110.07C152.098 109.514 152.105 108.89 151.965 108.197C151.805 107.498 151.517 106.815 151.101 106.147C150.686 105.479 150.159 104.877 149.523 104.341C148.887 103.805 148.165 103.399 147.357 103.122C147.19 103.584 147.039 104.095 146.907 104.658C146.761 105.193 146.655 105.741 146.59 106.302C146.532 106.843 146.53 107.346 146.585 107.81C146.627 108.741 146.849 109.527 147.251 110.168C147.653 110.809 148.241 111.251 149.014 111.495C149.604 111.681 150.194 111.688 150.785 111.516C151.356 111.338 151.743 110.856 151.945 110.07ZM158.338 88.8009C158.38 89.9094 158.192 90.8347 157.772 91.5767C157.33 92.2983 156.733 92.8763 155.982 93.3109C155.23 93.7455 154.399 94.0657 153.489 94.2716C152.557 94.4782 151.633 94.5992 150.717 94.6345C147.796 94.747 145.493 94.2592 143.807 93.1713C142.121 92.062 141.235 90.4202 141.152 88.2458C141.11 87.1586 141.288 86.2444 141.687 85.5032C142.084 84.7407 142.661 84.1954 143.417 83.8674L139.708 84.0103C138.898 84.0415 138.089 84.1046 137.281 84.1998C136.452 84.2957 135.7 84.4528 135.026 84.6709C134.893 84.5479 134.746 84.3508 134.586 84.0794C134.404 83.7875 134.306 83.439 134.29 83.034C134.271 82.5437 134.394 82.1333 134.659 81.8029C134.924 81.4725 135.312 81.2974 135.824 81.2777L153.987 80.6102C154.563 80.5881 154.986 80.4864 155.257 80.3052C155.505 80.1035 155.623 79.8427 155.611 79.523C155.607 79.4164 155.58 79.2786 155.531 79.1097C155.459 78.9203 155.326 78.7867 155.131 78.7088C155.296 78.553 155.473 78.4501 155.664 78.4001C155.853 78.3288 156.022 78.2902 156.171 78.2845C156.662 78.2656 157.064 78.4529 157.378 78.8465C157.671 79.2408 157.829 79.7471 157.853 80.3653C157.89 81.3246 157.534 82.0535 156.784 82.5521C156.013 83.0301 154.934 83.2958 153.548 83.3492L150.958 83.4489L150.707 82.754C151.821 82.8393 152.832 83.0352 153.74 83.3418C154.648 83.6271 155.442 84.0234 156.124 84.5309C156.804 85.0171 157.34 85.6156 157.73 86.3265C158.099 87.0381 158.302 87.8629 158.338 88.8009ZM156.58 88.068C156.552 87.3219 156.302 86.6697 155.832 86.1113C155.34 85.5325 154.693 85.0664 153.889 84.7131C153.085 84.3384 152.167 84.0748 151.137 83.9224C150.105 83.7486 149.025 83.6835 147.895 83.727C147.255 83.7516 146.628 83.8291 146.014 83.9595C145.379 84.0907 144.81 84.2941 144.309 84.5696C143.807 84.8451 143.416 85.2338 143.137 85.7356C142.857 86.2374 142.732 86.872 142.762 87.6394C142.814 89.0038 143.504 90.0233 144.833 90.698C146.139 91.3522 148.028 91.6317 150.501 91.5365C151.311 91.5053 152.088 91.4434 152.832 91.3507C153.575 91.2367 154.24 91.0509 154.828 90.7934C155.394 90.5368 155.84 90.1887 156.165 89.7492C156.468 89.3106 156.607 88.7502 156.58 88.068ZM154.406 64.52C155.282 66.6968 155.275 68.6775 154.384 70.4623C153.465 72.2352 151.758 73.6237 149.265 74.6278C146.752 75.6398 144.55 75.8251 142.659 75.1838C140.759 74.5227 139.372 73.1037 138.495 70.9269C137.618 68.7501 137.64 66.7752 138.559 65.0023C139.478 63.2294 141.194 61.8369 143.707 60.8249C146.2 59.8208 148.393 59.6394 150.284 60.2808C152.155 60.9301 153.529 62.3432 154.406 64.52ZM153.278 64.9742C152.752 63.6681 151.769 62.9137 150.331 62.7111C148.884 62.4886 147.063 62.8196 144.866 63.7042C142.65 64.5967 141.097 65.6243 140.209 66.7871C139.292 67.9381 139.097 69.1666 139.623 70.4727C140.157 71.7985 141.157 72.5687 142.623 72.7832C144.062 72.9859 145.889 72.641 148.106 71.7484C150.302 70.8639 151.849 69.8501 152.745 68.7072C153.634 67.5444 153.811 66.3001 153.278 64.9742ZM143.485 45.1621C145.032 46.9546 145.696 48.8335 145.476 50.7988C145.242 52.748 144.076 54.6287 141.976 56.4409C139.958 58.1835 137.928 59.048 135.887 59.0344C133.816 59.0185 131.972 58.074 130.355 56.2008C129.17 54.8282 128.562 53.5357 128.53 52.3233C128.497 51.1109 128.926 50.1213 129.814 49.3546C130.395 48.8527 131.003 48.6099 131.637 48.6262C132.271 48.6425 132.811 48.909 133.257 49.4257C133.452 49.6518 133.614 49.9208 133.742 50.2328C133.857 50.5285 133.881 50.8177 133.815 51.1002C133.463 50.9534 133.093 50.9339 132.707 51.0417C132.321 51.1495 131.935 51.3706 131.547 51.7052C131.079 52.1095 130.79 52.5421 130.68 53.0029C130.541 53.4616 130.546 53.9081 130.696 54.3426C130.845 54.7771 131.101 55.2043 131.464 55.6242C132.3 56.5931 133.442 57.0021 134.89 56.8512C136.308 56.6981 137.881 55.8757 139.609 54.3841C140.901 53.2689 141.796 52.2001 142.295 51.1779C142.763 50.1535 142.917 49.1892 142.756 48.285C142.566 47.3786 142.15 46.554 141.509 45.8112C141.007 45.2299 140.457 44.7887 139.859 44.4877C139.247 44.1705 138.609 44.0027 137.944 43.9842C137.28 43.9657 136.626 44.1219 135.982 44.4527C135.907 44.2355 135.938 44.0109 136.076 43.779C136.214 43.5472 136.542 43.3065 137.06 43.0571C138.152 42.5928 139.26 42.553 140.381 42.9378C141.502 43.3226 142.537 44.064 143.485 45.1621ZM121.077 49.7691C121.499 50.0588 121.766 50.4617 121.877 50.978C121.971 51.4822 121.873 51.9454 121.583 52.3676C121.282 52.8074 120.879 53.0742 120.375 53.1681C119.853 53.2499 119.381 53.146 118.958 52.8564C118.536 52.5667 118.278 52.1698 118.184 51.6655C118.091 51.1613 118.194 50.6893 118.496 50.2495C118.786 49.8274 119.183 49.5693 119.687 49.4754C120.191 49.3816 120.654 49.4794 121.077 49.7691ZM128.437 36.2691C128.787 35.7589 129.111 35.2307 129.408 34.6843C129.705 34.138 129.928 33.6054 130.077 33.0867C130.255 33.0536 130.509 33.0599 130.84 33.1057C131.165 33.1219 131.495 33.2446 131.829 33.474C132.216 33.7395 132.463 34.0771 132.57 34.4868C132.648 34.902 132.548 35.312 132.27 35.7166L125.906 45.0492C125.544 45.577 125.214 46.114 124.917 46.6604C124.602 47.1947 124.379 47.7272 124.248 48.258C124.052 48.2791 123.798 48.2727 123.485 48.239C123.171 48.2052 122.848 48.0737 122.514 47.8444C122.126 47.5789 121.888 47.2473 121.799 46.8496C121.68 46.4575 121.765 46.0504 122.055 45.6282L128.437 36.2691ZM110.306 23.7021C111.214 24.0124 111.804 24.5633 112.075 25.3546C112.325 26.139 112.209 27.2378 111.727 28.651L110.899 31.0736L110.376 30.6244C111.106 29.5437 111.966 28.6426 112.956 27.9214C113.94 27.2203 114.989 26.7558 116.104 26.528C117.212 26.3203 118.321 26.4061 119.431 26.7854C120.602 27.1853 121.424 27.8155 121.896 28.6758C122.362 29.5562 122.412 30.5315 122.047 31.6014C121.75 32.4695 121.27 33.1507 120.605 33.645C119.92 34.1324 119.118 34.4672 118.199 34.6493C117.28 34.8314 116.312 34.895 115.293 34.8402C114.37 34.7727 113.46 34.631 112.564 34.4152C111.669 34.1995 110.871 33.9608 110.171 33.6992L109.913 34.4563C109.32 36.1925 109.147 37.5877 109.396 38.642C109.637 39.7164 110.414 40.4778 111.727 40.926C112.191 41.0846 112.679 41.1726 113.192 41.1899C113.684 41.2003 114.144 41.0755 114.571 40.8155C114.971 40.5689 115.278 40.1327 115.492 39.5068C115.623 39.1233 115.673 38.6784 115.643 38.1722C115.586 37.6793 115.356 37.2627 114.954 36.9224C115.239 36.7491 115.54 36.6602 115.857 36.6558C116.167 36.6716 116.473 36.7312 116.776 36.8347C117.523 37.0898 118.026 37.5658 118.284 38.2626C118.514 38.9727 118.513 39.6709 118.278 40.3573C117.871 41.5484 117.026 42.2741 115.742 42.5344C114.459 42.7948 112.908 42.6146 111.091 41.994C108.972 41.2699 107.6 40.2039 106.976 38.7961C106.325 37.4015 106.383 35.5838 107.148 33.3429L109.155 27.4682C109.52 26.3982 109.35 25.7426 108.643 25.5012C108.502 25.4529 108.327 25.4381 108.117 25.4568C107.881 25.4888 107.668 25.585 107.478 25.7455C107.419 25.5225 107.4 25.3132 107.422 25.1177C107.416 24.9355 107.441 24.7637 107.496 24.6022C107.655 24.1378 108.001 23.8166 108.536 23.6384C109.07 23.4602 109.66 23.4814 110.306 23.7021ZM117.488 28.2181C116.936 28.0521 116.312 28.0306 115.616 28.1536C114.913 28.2968 114.223 28.5683 113.546 28.9681C112.868 29.3678 112.254 29.8794 111.703 30.5027C111.152 31.126 110.728 31.838 110.432 32.6386C110.889 32.8174 111.398 32.9797 111.956 33.1255C112.488 33.2846 113.034 33.4034 113.593 33.4817C114.132 33.5532 114.635 33.567 115.101 33.5233C116.032 33.5032 116.823 33.2999 117.473 32.9134C118.124 32.527 118.58 31.9502 118.842 31.183C119.042 30.5976 119.063 30.0074 118.906 29.4126C118.741 28.8379 118.269 28.4397 117.488 28.2181ZM86.57 21.0047C87.0989 20.936 87.5665 21.0581 87.9729 21.3711C88.3792 21.684 88.6154 22.0944 88.6813 22.6021C88.75 23.131 88.6279 23.5986 88.3149 24.005C88.002 24.4113 87.581 24.6488 87.0521 24.7175C86.5444 24.7834 86.0874 24.6599 85.681 24.347C85.2747 24.034 85.0372 23.6131 84.9685 23.0842C84.9025 22.5765 85.0261 22.1195 85.339 21.7131C85.6519 21.3068 86.0623 21.0706 86.57 21.0047ZM58.2772 30.947C58.6907 30.6829 59.107 30.5815 59.5259 30.643C59.9564 30.7224 60.3037 30.9689 60.5678 31.3824L71.5853 48.5705L69.0279 49.9763L59.5264 35.1613C59.1933 34.64 58.8333 34.1358 58.4463 33.6489C58.0593 33.162 57.6561 32.7487 57.2367 32.4091C57.2756 32.2323 57.3808 32.0006 57.5521 31.714C57.6939 31.4209 57.9356 31.1652 58.2772 30.947ZM75.3444 43.8149C75.5702 43.772 75.8149 43.8182 76.0785 43.9536C76.3357 44.1184 76.5774 44.3184 76.8036 44.5536C77.0118 44.8003 77.1374 45.0365 77.1803 45.2623C77.2347 45.506 77.172 45.6852 76.9922 45.8001L64.2905 53.9137C64.1107 54.0286 63.9307 54.0043 63.7505 53.841C63.5637 53.7072 63.4112 53.4882 63.2928 53.1841C63.1565 52.8914 63.0766 52.5881 63.0532 52.2739C63.0233 51.9893 63.0752 51.7536 63.2091 51.5668C63.8877 51.3611 64.6293 51.1153 65.4338 50.8292C66.2318 50.5726 67.0306 50.2775 67.8301 49.944C68.6297 49.6104 69.371 49.2255 70.0542 48.7891C70.7194 48.3641 71.3624 47.8648 71.9831 47.2911C72.6039 46.7173 73.1985 46.1224 73.7668 45.5062C74.3286 44.9195 74.8545 44.3557 75.3444 43.8149ZM53.8673 58.1837C53.5714 58.548 53.2066 58.7601 52.773 58.8202C52.3394 58.8802 51.9074 58.7354 51.4769 58.3856L42.5403 51.1667C42.0767 50.7901 41.7052 50.5707 41.4258 50.5086C41.1495 50.4766 40.9172 50.5764 40.7288 50.8083C40.6481 50.9076 40.5705 51.037 40.496 51.1963C40.4381 51.3691 40.45 51.5575 40.5318 51.7613C40.1189 51.7282 39.7717 51.5974 39.4902 51.3687C39.1259 51.0727 38.9422 50.6899 38.9391 50.2201C38.9225 49.7668 39.116 49.2918 39.5195 48.7951C40.0576 48.1328 40.6899 47.7944 41.4163 47.7798C42.1459 47.7953 42.9577 48.1662 43.8518 48.8926L45.4165 50.1638L45.6106 50.9399C44.6978 50.0335 44.0386 49.0856 43.6329 48.0964C43.2438 47.1205 43.1128 46.1483 43.24 45.1797C43.3704 44.2412 43.7786 43.3496 44.4646 42.5052C45.5407 41.1806 46.7302 40.5115 48.033 40.498C49.339 40.5144 50.9358 41.2894 52.8234 42.8229L57.6914 46.7777C58.1219 47.1275 58.6057 47.4793 59.1428 47.8332C59.6964 48.2005 60.2257 48.4793 60.7307 48.6697C60.7421 48.9264 60.7168 49.1944 60.6547 49.4738C60.5957 49.7832 60.4452 50.0869 60.2031 50.385C59.8937 50.7658 59.5372 50.9847 59.1336 51.0416C58.7166 51.1151 58.3094 50.9904 57.912 50.6676L51.3054 45.3004C50.2954 44.4798 49.407 43.8817 48.6401 43.5061C47.8899 43.144 47.2312 43.0074 46.6641 43.0965C46.1002 43.2155 45.5828 43.5648 45.112 44.1443C44.7891 44.5417 44.5806 45.0182 44.4865 45.5739C44.3924 46.1296 44.4493 46.7531 44.6573 47.4444C44.8819 48.1491 45.2928 48.8951 45.8899 49.6826C46.4736 50.4866 47.2953 51.3191 48.355 52.18C49.3154 52.9602 50.1169 53.5976 50.7595 54.0922C51.3887 54.6034 51.9087 55.0121 52.3196 55.3184C52.747 55.6381 53.12 55.8725 53.4388 56.0215C53.7606 56.2005 54.0876 56.3562 54.4198 56.4887C54.4384 56.6687 54.4183 56.9134 54.3593 57.2229C54.3003 57.5323 54.1363 57.8526 53.8673 58.1837ZM33.2197 58.8369C33.3712 58.4381 33.6472 58.1321 34.0476 57.9191C34.4679 57.7137 34.9274 57.7056 35.426 57.895L46.1054 61.9517C46.6638 62.1638 47.0792 62.2418 47.3516 62.1855C47.6364 62.1567 47.8356 61.9928 47.9492 61.6937C47.9871 61.5939 48.0064 61.4529 48.0072 61.2707C48.0279 61.096 47.9675 60.9247 47.8259 60.7568C48.2359 60.6387 48.6104 60.644 48.9494 60.7728C49.4081 60.947 49.7164 61.2467 49.8744 61.6719C50.0248 62.117 49.9826 62.6486 49.7478 63.2669C49.4448 64.0646 48.9245 64.563 48.1871 64.7621C47.462 64.9887 46.525 64.8724 45.3758 64.4131L43.6408 63.754L43.837 63.4177C45.4488 64.281 46.5433 65.2445 47.1206 66.3081C47.7102 67.3993 47.7853 68.5232 47.3459 69.6799C46.952 70.717 46.3509 71.4585 45.5425 71.9045C44.754 72.3581 43.8512 72.3917 42.8341 72.0053C42.1561 71.7477 41.6696 71.3462 41.3748 70.8006C41.08 70.255 41.0173 69.7291 41.1868 69.223C41.379 68.657 41.6639 68.2974 42.0416 68.1442C42.3021 68.5398 42.5606 68.8206 42.817 68.9865C43.0934 69.1599 43.4012 69.3111 43.7402 69.4399C44.3584 69.6747 44.8602 69.7055 45.2454 69.5324C45.6506 69.3668 45.9555 69.0148 46.16 68.4764C46.357 67.9578 46.3033 67.3783 45.9989 66.7378C45.7145 66.1049 45.1067 65.4519 44.1758 64.7787C43.2647 64.1132 41.9616 63.4585 40.2665 62.8145C39.1297 62.3827 38.1824 62.0229 37.4246 61.735C36.6791 61.4747 36.0533 61.2598 35.5472 61.0903C35.061 60.9284 34.637 60.813 34.2752 60.7441C33.9334 60.6827 33.5902 60.655 33.2456 60.661C33.1714 60.4959 33.1175 60.2473 33.084 59.915C33.0429 59.6027 33.0881 59.2434 33.2197 58.8369ZM27.7754 76.6391C27.8079 75.9999 27.99 75.5713 28.3215 75.3532C28.6732 75.1575 29.0941 75.0721 29.5841 75.0971L50.0057 76.1366C50.5181 76.1414 50.9047 76.3106 51.1654 76.6442C51.4261 76.9779 51.544 77.3898 51.519 77.8798C51.4973 78.3059 51.3942 78.6531 51.2097 78.9214C51.0464 79.1908 50.8976 79.3862 50.7633 79.5075C50.2159 79.3515 49.7089 79.2402 49.2423 79.1737C48.7758 79.1073 48.3305 79.0419 47.9066 78.9776C47.5028 78.9357 47.0773 78.9033 46.6298 78.8805C46.2037 78.8589 45.7467 78.8142 45.2589 78.7467L39.2842 78.4105L39.5497 78.2318C40.5998 78.5843 41.4937 79.0677 42.2314 79.682C42.9893 80.3187 43.5703 81.0745 43.9744 81.9495C44.3784 82.8245 44.5528 83.8053 44.4975 84.8919C44.4291 86.2342 44.0373 87.2182 43.3219 87.844C42.6065 88.4697 41.7161 88.7555 40.6508 88.7013C39.7773 88.6568 39.0004 88.393 38.32 87.9098C37.66 87.4489 37.0916 86.8646 36.615 86.1568C36.1372 85.4703 35.7368 84.7343 35.4137 83.9489C35.293 84.2204 35.1 84.4456 34.8346 84.6243C34.5894 84.8254 34.3015 85.0244 33.9711 85.2212L30.8808 86.7621C30.464 86.9758 30.156 87.1524 29.9566 87.2918C29.7775 87.4535 29.6804 87.6836 29.6652 87.9818C29.6598 88.0884 29.674 88.2279 29.708 88.4005C29.7632 88.5742 29.8616 88.7395 30.0031 88.8962C29.8464 89.0377 29.6812 89.1361 29.5075 89.1914C29.3338 89.2466 29.1617 89.2699 28.9913 89.2612C28.4586 89.2341 28.0237 88.9663 27.6864 88.4578C27.3694 87.9718 27.2261 87.4304 27.2564 86.8339C27.2857 86.2586 27.4827 85.7453 27.8475 85.2939C28.2122 84.8426 28.7319 84.4952 29.4065 84.2519L34.8434 81.9333C34.6427 81.2609 34.4627 80.6002 34.3035 79.9513C34.1645 79.3247 34.0446 78.7419 33.9439 78.2027C33.0277 78.1561 32.2607 78.117 31.6429 78.0856C31.0463 78.0552 30.5557 78.0409 30.1711 78.0427C29.8068 78.0669 29.4845 78.1039 29.2043 78.1537C28.9442 78.2259 28.6517 78.3071 28.3267 78.3974C28.1863 78.2194 28.0592 77.9886 27.9454 77.7051C27.8093 77.4418 27.7526 77.0865 27.7754 76.6391ZM35.1583 78.2645C35.3706 79.1298 35.6255 79.9972 35.923 80.8668C36.2407 81.7588 36.6166 82.5576 37.0506 83.2632C37.4836 83.9902 37.988 84.5712 38.564 85.0064C39.1601 85.464 39.8524 85.7128 40.6407 85.7529C41.429 85.7931 41.9933 85.6189 42.3335 85.2303C42.6939 84.8642 42.8893 84.3828 42.9196 83.7863C42.9706 82.7849 42.6646 81.8722 42.0017 81.0481C41.3589 80.2463 40.4412 79.6015 39.2484 79.1136C38.077 78.6267 36.7136 78.3437 35.1583 78.2645ZM29.2849 103.22C28.6533 100.982 28.8472 98.9991 29.8667 97.2706C30.8919 95.5625 32.7391 94.3318 35.4082 93.5785C37.9746 92.8542 40.1765 92.9199 42.0141 93.7756C43.8721 94.6255 45.143 96.2618 45.8268 98.6845C46.1397 99.7932 46.2434 100.828 46.1377 101.789C46.0526 102.744 45.7408 103.563 45.2023 104.247C44.6902 104.946 43.9414 105.434 42.9559 105.713C41.4161 106.147 40.069 105.851 38.9148 104.825C37.787 103.813 36.9217 102.24 36.3191 100.104C36.0815 99.2627 35.8776 98.4225 35.7074 97.5838C35.5635 96.76 35.4623 95.8908 35.4037 94.9763L36.4682 94.7424C36.5309 95.2788 36.6213 95.874 36.7393 96.5278C36.8574 97.1817 37.0017 97.8503 37.1724 98.5336C37.3637 99.2111 37.5975 99.8434 37.874 100.43C38.1711 101.012 38.5226 101.511 38.9285 101.928C39.3551 102.34 39.8626 102.607 40.4512 102.729C41.0456 102.871 41.7329 102.832 42.5131 102.612C43.2933 102.392 43.8482 102.08 44.1777 101.677C44.5072 101.274 44.6903 100.823 44.727 100.325C44.7901 99.8416 44.755 99.3638 44.6218 98.8916C44.2509 97.5776 43.3673 96.6854 41.9711 96.215C40.6011 95.7593 38.8074 95.8444 36.5901 96.4702C34.927 96.9396 33.6636 97.5289 32.7998 98.2382C31.9565 98.9417 31.4265 99.7342 31.2098 100.616C31.0193 101.512 31.0603 102.442 31.3327 103.407C31.6456 104.516 32.1438 105.417 32.8272 106.111C33.5313 106.799 34.3373 107.181 35.2455 107.257C35.2213 107.485 35.1079 107.673 34.9053 107.819C34.7026 107.964 34.3156 108.007 33.7444 107.947C32.6899 107.823 31.7772 107.338 31.0063 106.492C30.2354 105.645 29.6616 104.555 29.2849 103.22ZM31.2152 125.111C30.6821 124.338 30.261 123.54 29.9519 122.717C29.6428 121.893 29.5415 121.108 29.6478 120.36C29.7488 119.643 30.1504 119.042 30.8528 118.557C31.362 118.206 31.9012 118.067 32.4705 118.141C33.0222 118.226 33.4858 118.541 33.8614 119.086C34.2128 119.595 34.318 120.067 34.177 120.501C33.8494 120.364 33.5263 120.328 33.2078 120.392C32.9014 120.474 32.6516 120.582 32.4584 120.715C32.0019 121.03 31.712 121.398 31.5885 121.821C31.4475 122.255 31.434 122.705 31.548 123.17C31.662 123.636 31.8583 124.071 32.137 124.475C33.1063 125.879 34.3682 126.525 35.9227 126.411C37.4718 126.327 39.2647 125.582 41.3015 124.177C41.6 123.971 41.9484 123.743 42.3468 123.494C42.7749 123.251 43.203 123.007 43.6311 122.764C44.0592 122.52 44.4521 122.301 44.81 122.106L45.4658 122.042C43.7468 122.969 42.1285 123.347 40.6109 123.176C39.1229 123.011 37.87 122.19 36.8522 120.715C35.9435 119.399 35.6567 118.119 35.9919 116.877C36.3567 115.64 37.5487 114.325 39.568 112.932L44.5985 109.46C45.0726 109.133 45.5548 108.762 46.0452 108.345C46.5356 107.929 46.9431 107.506 47.2675 107.074C47.5171 107.135 47.7672 107.235 48.0179 107.373C48.2984 107.516 48.5476 107.746 48.7657 108.062C49.0444 108.466 49.1544 108.87 49.0958 109.273C49.0493 109.694 48.8153 110.05 48.3939 110.34L41.5197 115.084C39.9746 116.15 38.9484 117.105 38.4411 117.947C37.946 118.807 37.9953 119.667 38.589 120.528C38.9161 121.002 39.3392 121.371 39.8583 121.635C40.3895 121.916 41.016 122.054 41.7378 122.049C42.4894 122.048 43.3268 121.872 44.2503 121.52C45.1737 121.168 46.1885 120.61 47.2947 119.847C48.2955 119.156 49.1147 118.578 49.7522 118.112C50.4019 117.664 50.9226 117.292 51.3143 116.995C51.7236 116.687 52.0445 116.401 52.277 116.137C52.5391 115.878 52.7804 115.608 53.0007 115.326C53.1788 115.359 53.408 115.447 53.6884 115.59C53.9689 115.734 54.2302 115.981 54.4726 116.332C54.7391 116.719 54.8404 117.128 54.7763 117.561C54.7122 117.994 54.4519 118.368 53.9954 118.683L42.978 126.325C41.1344 127.597 39.4832 128.322 38.0244 128.499C36.5601 128.706 35.2726 128.493 34.1618 127.86C33.0334 127.239 32.0512 126.322 31.2152 125.111ZM58.4479 143.469C57.9918 143.193 57.7027 142.806 57.5806 142.308C57.4585 141.809 57.5301 141.341 57.7956 140.904C58.072 140.448 58.4594 140.158 58.9575 140.036C59.4556 139.914 59.9327 139.991 60.3888 140.268C60.8266 140.533 61.1066 140.915 61.2287 141.413C61.3509 141.911 61.2737 142.388 60.9972 142.845C60.7318 143.282 60.35 143.562 59.8519 143.684C59.3537 143.807 58.8857 143.735 58.4479 143.469Z" fill="#F1C953"/>
<g clip-path="url(#clip0_3061_641)">
<path d="M92.8 111.295C106.328 111.295 117.295 100.328 117.295 86.8001C117.295 73.2718 106.328 62.3051 92.8 62.3051C79.2718 62.3051 68.305 73.2718 68.305 86.8001C68.305 100.328 79.2718 111.295 92.8 111.295Z" fill="#E30A17"/>
<path d="M83.536 86.8001C83.536 80.5581 88.596 75.5001 94.835 75.5001C96.739 75.5001 98.534 75.9721 100.106 76.8041C97.554 74.2531 94.022 72.6741 90.13 72.6741C82.33 72.6741 76.006 78.9981 76.006 86.8001C76.006 94.6021 82.33 100.926 90.13 100.926C94.029 100.926 97.554 99.3471 100.106 96.7991C98.534 97.6311 96.739 98.1001 94.835 98.1001C88.596 98.1001 83.536 93.0401 83.536 86.8001Z" fill="white"/>
<path d="M100.429 86.8331L104.968 85.1351L105.178 80.2931L108.197 84.0861L112.865 82.7911L110.191 86.8331L112.865 90.8741L108.197 89.5791L105.178 93.3721L104.968 88.5281L100.429 86.8331Z" fill="white"/>
<mask id="mask0_3061_641" style="mask-type:luminance" maskUnits="userSpaceOnUse" x="68" y="62" width="50" height="50">
<path d="M92.8 111.3C106.331 111.3 117.3 100.331 117.3 86.8C117.3 73.2691 106.331 62.3 92.8 62.3C79.269 62.3 68.3 73.2691 68.3 86.8C68.3 100.331 79.269 111.3 92.8 111.3Z" fill="white"/>
</mask>
<g mask="url(#mask0_3061_641)">
<path opacity="0.4" d="M92.8 114.269C107.971 114.269 120.269 101.971 120.269 86.8001C120.269 71.6293 107.971 59.3311 92.8 59.3311C77.6293 59.3311 65.331 71.6293 65.331 86.8001C65.331 101.971 77.6293 114.269 92.8 114.269Z" fill="url(#paint0_radial_3061_641)"/>
</g>
<mask id="mask1_3061_641" style="mask-type:luminance" maskUnits="userSpaceOnUse" x="68" y="62" width="50" height="50">
<path d="M92.8 111.3C106.331 111.3 117.3 100.331 117.3 86.8C117.3 73.2691 106.331 62.3 92.8 62.3C79.269 62.3 68.3 73.2691 68.3 86.8C68.3 100.331 79.269 111.3 92.8 111.3Z" fill="white"/>
</mask>
<g mask="url(#mask1_3061_641)">
<path opacity="0.6" d="M92.8 118.478C110.295 118.478 124.478 104.295 124.478 86.8001C124.478 69.3048 110.295 55.1221 92.8 55.1221C75.3047 55.1221 61.122 69.3048 61.122 86.8001C61.122 104.295 75.3047 118.478 92.8 118.478Z" fill="url(#paint1_radial_3061_641)"/>
</g>
<path d="M93.106 93.802C102.664 93.802 110.412 87.5336 110.412 79.801C110.412 72.0685 102.664 65.8 93.106 65.8C83.5481 65.8 75.8 72.0685 75.8 79.801C75.8 87.5336 83.5481 93.802 93.106 93.802Z" fill="url(#paint2_linear_3061_641)"/>
</g>
</g>
<defs>
<filter id="filter0_d_3061_641" x="-1.23978e-05" y="4.86374e-05" width="181.6" height="181.6" filterUnits="userSpaceOnUse" color-interpolation-filters="sRGB">
<feFlood flood-opacity="0" result="BackgroundImageFix"/>
<feColorMatrix in="SourceAlpha" type="matrix" values="0 0 0 0 0 0 0 0 0 0 0 0 0 0 0 0 0 0 127 0" result="hardAlpha"/>
<feOffset dx="-2" dy="4"/>
<feGaussianBlur stdDeviation="5.4"/>
<feComposite in2="hardAlpha" operator="out"/>
<feColorMatrix type="matrix" values="0 0 0 0 0 0 0 0 0 0 0 0 0 0 0 0 0 0 0.25 0"/>
<feBlend mode="normal" in2="BackgroundImageFix" result="effect1_dropShadow_3061_641"/>
<feBlend mode="normal" in="SourceGraphic" in2="effect1_dropShadow_3061_641" result="shape"/>
</filter>
<radialGradient id="paint0_radial_3061_641" cx="0" cy="0" r="1" gradientUnits="userSpaceOnUse" gradientTransform="translate(92.8 86.8001) scale(27.4688)">
<stop stop-opacity="0"/>
<stop offset="0.7576" stop-opacity="0"/>
<stop offset="1"/>
</radialGradient>
<radialGradient id="paint1_radial_3061_641" cx="0" cy="0" r="1" gradientUnits="userSpaceOnUse" gradientTransform="translate(92.8 86.8001) scale(31.6777)">
<stop stop-opacity="0"/>
<stop offset="0.5758" stop-opacity="0"/>
<stop offset="1"/>
</radialGradient>
<linearGradient id="paint2_linear_3061_641" x1="93.1056" y1="93.8021" x2="93.1056" y2="65.8002" gradientUnits="userSpaceOnUse">
<stop offset="0.0727" stop-color="white" stop-opacity="0.05"/>
<stop offset="0.897" stop-color="white" stop-opacity="0.75"/>
<stop offset="1" stop-color="white" stop-opacity="0.75"/>
</linearGradient>
<clipPath id="clip0_3061_641">
<rect width="50" height="50" fill="white" transform="translate(67.8 61.8)"/>
</clipPath>
</defs>
</svg>
