<svg width="133" height="132" viewBox="0 0 133 132" fill="none" xmlns="http://www.w3.org/2000/svg">
<path d="M4.91778 64.6512C4.34571 64.584 3.82905 64.3193 3.36782 63.857C2.90658 63.3947 2.53691 62.7928 2.25882 62.0513C1.97824 61.331 1.78301 60.5241 1.67313 59.6305C1.56326 58.737 1.56305 57.824 1.67251 56.8918C1.98598 54.2221 3.21626 52.2508 5.36336 50.9778C7.51046 49.7049 10.4273 49.2848 14.114 49.7177C17.8007 50.1506 20.5397 51.2455 22.331 53.0024C24.1199 54.7805 24.8539 57.0361 24.5329 59.7693C24.4334 60.6168 24.2529 61.4226 23.9913 62.1867C23.7298 62.9507 23.4159 63.6119 23.0496 64.1704C22.6808 64.75 22.2752 65.1857 21.8328 65.4774C21.388 65.7903 20.9219 65.9182 20.4346 65.8609C20.0108 65.8112 19.6425 65.5639 19.3296 65.119C19.0378 64.6766 18.9567 64.0872 19.0861 63.3506C20.3349 63.3254 21.3088 62.9886 22.0079 62.3404C22.7256 61.7158 23.1529 60.8209 23.2897 59.6556C23.5037 57.8334 22.8073 56.3555 21.2005 55.2217C19.615 54.0904 17.1272 53.3257 13.7371 52.9277C10.3471 52.5296 7.74046 52.6854 5.91727 53.3949C4.11278 54.1282 3.10481 55.3953 2.89334 57.1962C2.80378 57.959 2.88059 58.6768 3.12377 59.3498C3.36446 60.0439 3.7765 60.6508 4.35989 61.1704C4.96198 61.7136 5.7298 62.126 6.66335 62.4074C6.65845 62.815 6.59249 63.1939 6.46544 63.5441C6.3384 63.8943 6.14466 64.1723 5.88423 64.378C5.6425 64.6074 5.32035 64.6984 4.91778 64.6512ZM3.65292 84.868C3.43398 83.9333 3.58808 83.1413 4.11522 82.4919C4.64722 81.8634 5.64021 81.3788 7.09419 81.0382L9.58673 80.4544L9.48344 81.1359C8.18009 81.0906 6.96002 80.8396 5.82323 80.3828C4.7072 79.9212 3.75687 79.2783 2.97225 78.4542C2.2084 77.6252 1.69267 76.6395 1.42508 75.4971C1.14289 74.2924 1.24104 73.2615 1.71953 72.4045C2.21878 71.5426 3.01885 70.9827 4.11972 70.7248C5.01288 70.5156 5.84531 70.5616 6.61702 70.8629C7.3936 71.185 8.10282 71.6871 8.74466 72.3694C9.38651 73.0517 9.95435 73.8389 10.4482 74.7311C10.881 75.55 11.2436 76.3963 11.5358 77.27C11.8281 78.1437 12.049 78.9464 12.1986 79.6783L12.9775 79.4959C14.7638 79.0774 16.0379 78.4832 16.7996 77.7132C17.5822 76.9383 17.8154 75.8758 17.4991 74.5257C17.3872 74.0479 17.2026 73.5872 16.9453 73.1435C16.6929 72.7206 16.3432 72.3972 15.8964 72.1732C15.4752 71.9651 14.9426 71.9365 14.2987 72.0873C13.904 72.1797 13.5001 72.3729 13.087 72.6669C12.6994 72.9768 12.4681 73.3925 12.3931 73.914C12.0952 73.7647 11.8602 73.5568 11.6883 73.2903C11.5371 73.019 11.425 72.7275 11.352 72.416C11.172 71.6474 11.3089 70.969 11.7627 70.3807C12.2421 69.8083 12.8349 69.4393 13.5411 69.2739C14.7666 68.9869 15.8302 69.3184 16.732 70.2684C17.6338 71.2185 18.3036 72.6282 18.7415 74.4976C19.2523 76.6786 19.0765 78.4069 18.214 79.6825C17.3772 80.9741 15.806 81.8899 13.5004 82.4299L7.456 83.8457C6.35513 84.1036 5.88984 84.596 6.06013 85.323C6.09418 85.4684 6.17465 85.6248 6.30152 85.7923C6.45403 85.9757 6.64873 86.1054 6.88564 86.1813C6.72789 86.3498 6.56041 86.4766 6.3832 86.562C6.23163 86.6632 6.07276 86.7333 5.90659 86.7722C5.42885 86.8841 4.97273 86.7609 4.53822 86.4025C4.10371 86.0442 3.80861 85.5327 3.65292 84.868ZM3.67061 76.3844C3.82274 76.9403 4.13553 77.4806 4.60896 78.0051C5.10316 78.5247 5.69944 78.9657 6.3978 79.328C7.09616 79.6903 7.85571 79.9396 8.67645 80.076C9.49719 80.2125 10.3254 80.1937 11.1611 80.0199C11.07 79.5373 10.938 79.0205 10.7651 78.4694C10.6178 77.9342 10.429 77.4087 10.1986 76.893C9.97315 76.398 9.71828 75.9648 9.43404 75.5931C8.92299 74.8145 8.33111 74.252 7.65839 73.9056C6.98566 73.5592 6.25465 73.4785 5.46535 73.6634C4.86299 73.8045 4.35147 74.0996 3.93081 74.5487C3.53092 74.9929 3.44419 75.6048 3.67061 76.3844ZM25.749 92.0751C26.3643 93.0237 26.6634 93.9357 26.6465 94.8113C26.6475 95.6752 26.4361 96.4862 26.0123 97.2442C25.5886 98.0022 25.0236 98.6992 24.3173 99.3353C23.6406 99.9777 22.9264 100.543 22.1747 101.03C19.7048 102.632 17.4588 103.364 15.4368 103.227C13.4265 103.107 11.8466 102.161 10.6973 100.389C10.1169 99.4939 9.80244 98.6171 9.75407 97.7585C9.71731 96.9178 9.92508 96.16 10.3774 95.4852L7.5316 97.3311C7.15574 97.5749 6.7141 97.8741 6.20667 98.2287C5.71085 98.6011 5.22083 98.9826 4.73662 99.3729C4.24612 99.7928 3.84197 100.169 3.52416 100.503C3.34711 100.465 3.11468 100.361 2.82687 100.192C2.53276 100.052 2.27542 99.8124 2.05485 99.4723C1.78783 99.0607 1.69254 98.6393 1.76897 98.2083C1.82751 97.7889 2.05365 97.4515 2.4474 97.1961L17.8481 87.2448C18.3492 86.9197 18.6634 86.6397 18.7906 86.4046C18.9357 86.1579 18.9154 85.8913 18.7297 85.605C18.6716 85.5155 18.5783 85.4107 18.4496 85.2908C18.3209 85.1708 18.1381 85.1241 17.9011 85.1507C17.9925 84.9389 18.1013 84.7538 18.2276 84.5957C18.3538 84.4375 18.4796 84.3178 18.6049 84.2365C18.9986 83.9811 19.4253 83.9332 19.8848 84.0928C20.3444 84.2525 20.7367 84.5829 21.0617 85.084C21.5957 85.9073 21.6477 86.7127 21.2177 87.5002C20.8172 88.294 20.0442 89.0624 18.8987 89.8054L16.6436 91.2682L16.0725 90.7994C17.0729 90.3031 18.036 89.9454 18.9618 89.7263C19.9172 89.5135 20.8027 89.4477 21.6182 89.529C22.4633 89.6165 23.2353 89.8659 23.9343 90.2771C24.6333 90.6882 25.2382 91.2876 25.749 92.0751ZM23.8639 92.3443C23.4576 91.7178 22.9039 91.2759 22.203 91.0186C21.5137 90.7792 20.7277 90.7042 19.8449 90.7937C18.9916 90.8894 18.0863 91.1206 17.129 91.4873C16.2012 91.8602 15.2809 92.3428 14.3681 92.9348C13.7238 93.3528 13.1443 93.7922 12.6296 94.2532C12.1328 94.7026 11.7393 95.174 11.4491 95.6674C11.1883 96.1671 11.0693 96.6892 11.0921 97.2339C11.1148 97.7786 11.3177 98.3462 11.7008 98.9369C12.4903 100.154 13.6193 100.718 15.0879 100.63C16.5743 100.531 18.3736 99.796 20.4855 98.4261C21.1298 98.0082 21.7331 97.5661 22.2951 97.0998C22.8867 96.6397 23.3603 96.1546 23.7159 95.6442C24.1009 95.1402 24.3205 94.6163 24.3747 94.0726C24.4289 93.5289 24.2586 92.9528 23.8639 92.3443ZM37.0927 104.388C37.9931 105.072 38.5837 105.829 38.8645 106.658C39.1582 107.471 39.2342 108.306 39.0924 109.162C38.9507 110.019 38.6554 110.866 38.2065 111.704C37.7876 112.538 37.3071 113.311 36.7651 114.025C34.9844 116.369 33.1195 117.819 31.1705 118.375C29.2384 118.943 27.4315 118.589 25.7497 117.311C24.9003 116.666 24.3073 115.948 23.9708 115.157C23.6513 114.378 23.5899 113.595 23.7867 112.807L21.735 115.508C21.464 115.864 21.1499 116.296 20.7927 116.801C20.4525 117.32 20.1207 117.845 19.7975 118.376C19.4783 118.937 19.2257 119.428 19.0397 119.85C18.8603 119.874 18.6066 119.856 18.2784 119.794C17.9543 119.762 17.6309 119.624 17.3081 119.378C16.9174 119.082 16.6849 118.718 16.6108 118.286C16.5237 117.872 16.6221 117.478 16.906 117.104L28.0223 102.522C28.3837 102.046 28.5843 101.676 28.6243 101.412C28.6772 101.131 28.5678 100.887 28.296 100.68C28.211 100.616 28.0877 100.549 27.926 100.48C27.7643 100.41 27.5764 100.428 27.3625 100.534C27.3767 100.303 27.4164 100.092 27.4815 99.9009C27.5467 99.7093 27.6244 99.554 27.7148 99.4351C27.9987 99.0614 28.3838 98.8717 28.8703 98.8661C29.3567 98.8606 29.8378 99.0384 30.3134 99.3997C31.0949 99.9933 31.4168 100.733 31.2791 101.62C31.1713 102.503 30.7045 103.488 29.8787 104.575L28.2528 106.715L27.5567 106.468C28.3296 105.662 29.1145 104.999 29.9112 104.479C30.7379 103.955 31.5487 103.593 32.3435 103.393C33.1682 103.189 33.9791 103.162 34.776 103.312C35.573 103.462 36.3452 103.821 37.0927 104.388ZM35.4105 105.281C34.8159 104.829 34.1452 104.601 33.3986 104.596C32.6689 104.605 31.904 104.8 31.1038 105.184C30.3334 105.563 29.5601 106.088 28.7837 106.757C28.0372 107.422 27.335 108.188 26.6769 109.055C26.2123 109.666 25.8161 110.276 25.4881 110.884C25.173 111.475 24.9625 112.052 24.8567 112.615C24.7808 113.173 24.8458 113.705 25.0518 114.21C25.2578 114.714 25.6411 115.18 26.2017 115.605C27.3569 116.483 28.6104 116.631 29.9622 116.051C31.327 115.453 32.7707 114.152 34.2933 112.147C34.7579 111.536 35.1755 110.915 35.5463 110.286C35.947 109.653 36.2281 109.036 36.3896 108.435C36.581 107.831 36.6101 107.263 36.4768 106.733C36.3435 106.204 35.9881 105.719 35.4105 105.281ZM50.4115 129.524C49.4959 129.235 48.8933 128.699 48.6037 127.914C48.3344 127.136 48.4242 126.034 48.873 124.61L49.6423 122.168L50.1758 122.605C49.472 123.703 48.6337 124.624 47.6609 125.369C46.6945 126.093 45.6568 126.583 44.5478 126.837C43.4451 127.071 42.3342 127.012 41.2151 126.66C40.035 126.288 39.1984 125.677 38.7053 124.829C38.2187 123.96 38.1452 122.986 38.485 121.907C38.7607 121.033 39.2249 120.34 39.8777 119.83C40.5508 119.326 41.3445 118.972 42.2588 118.768C43.173 118.564 44.1398 118.478 45.1591 118.508C46.0842 118.553 46.997 118.673 47.8976 118.868C48.7982 119.062 49.6013 119.281 50.3071 119.526L50.5475 118.763C51.0988 117.013 51.2377 115.614 50.964 114.566C50.6967 113.498 49.9017 112.755 48.5792 112.339C48.1112 112.191 47.6207 112.115 47.1079 112.11C46.6154 112.111 46.1588 112.247 45.7382 112.517C45.3444 112.773 45.0481 113.217 44.8493 113.847C44.7275 114.234 44.6876 114.68 44.7297 115.185C44.7986 115.677 45.0381 116.088 45.4484 116.418C45.168 116.598 44.8694 116.694 44.5524 116.706C44.2419 116.698 43.9341 116.646 43.6289 116.55C42.876 116.312 42.3623 115.849 42.0878 115.158C41.84 114.454 41.8251 113.756 42.0431 113.064C42.4213 111.863 43.249 111.118 44.5262 110.827C45.8033 110.536 47.3575 110.679 49.1888 111.256C51.3252 111.929 52.7221 112.962 53.3793 114.354C54.0633 115.733 54.0495 117.551 53.3379 119.81L51.4723 125.731C51.1325 126.809 51.3187 127.461 52.0308 127.685C52.1732 127.73 52.3488 127.741 52.5576 127.717C52.7931 127.679 53.004 127.578 53.1902 127.413C53.2546 127.635 53.2783 127.843 53.2613 128.039C53.271 128.221 53.2503 128.394 53.199 128.557C53.0515 129.025 52.7129 129.354 52.183 129.545C51.6531 129.736 51.0626 129.729 50.4115 129.524ZM43.1237 125.181C43.6795 125.334 44.3037 125.34 44.9964 125.2C45.6954 125.04 46.3789 124.753 47.0467 124.337C47.7146 123.921 48.3165 123.395 48.8525 122.758C49.3885 122.122 49.7949 121.4 50.0717 120.593C49.6101 120.425 49.0982 120.275 48.536 120.142C48.0006 119.996 47.4523 119.89 46.8912 119.825C46.3505 119.767 45.8478 119.765 45.3832 119.82C44.4528 119.862 43.667 120.084 43.0259 120.486C42.3849 120.888 41.9425 121.476 41.6989 122.249C41.513 122.839 41.5059 123.43 41.6776 124.021C41.8557 124.591 42.3377 124.978 43.1237 125.181ZM64.3927 131.573C63.2842 131.616 62.359 131.427 61.6169 131.007C60.8954 130.566 60.3173 129.969 59.8827 129.217C59.4481 128.465 59.1279 127.634 58.9221 126.724C58.7154 125.793 58.5945 124.869 58.5592 123.952C58.4467 121.031 58.9344 118.728 60.0224 117.042C61.1316 115.356 62.7734 114.471 64.9478 114.387C66.035 114.345 66.9492 114.523 67.6904 114.922C68.453 115.319 68.9982 115.896 69.3262 116.652L69.1834 112.943C69.1522 112.133 69.089 111.324 68.9939 110.516C68.8979 109.687 68.7409 108.936 68.5227 108.261C68.6457 108.128 68.8429 107.982 69.1143 107.822C69.4062 107.64 69.7546 107.541 70.1596 107.525C70.6499 107.506 71.0603 107.629 71.3908 107.894C71.7212 108.159 71.8963 108.547 71.916 109.059L72.5834 127.223C72.6056 127.798 72.7073 128.221 72.8885 128.492C73.0902 128.74 73.3509 128.858 73.6707 128.846C73.7773 128.842 73.915 128.815 74.0839 128.766C74.2733 128.695 74.4069 128.561 74.4848 128.366C74.6406 128.531 74.7435 128.709 74.7935 128.899C74.8649 129.088 74.9034 129.258 74.9092 129.407C74.9281 129.897 74.7407 130.299 74.3472 130.613C73.9528 130.906 73.4465 131.064 72.8283 131.088C71.869 131.125 71.1401 130.769 70.6416 130.019C70.1635 129.248 69.8978 128.169 69.8445 126.784L69.7447 124.194L70.4396 123.943C70.3544 125.056 70.1585 126.067 69.8519 126.976C69.5666 127.883 69.1702 128.678 68.6627 129.359C68.1765 130.04 67.578 130.575 66.8672 130.965C66.1555 131.334 65.3307 131.537 64.3927 131.573ZM65.1257 129.816C65.8718 129.787 66.524 129.538 67.0823 129.068C67.6612 128.576 68.1272 127.928 68.4806 127.124C68.8552 126.32 69.1188 125.403 69.2713 124.372C69.445 123.341 69.5102 122.26 69.4666 121.13C69.442 120.491 69.3645 119.864 69.2341 119.25C69.1029 118.614 68.8995 118.046 68.624 117.544C68.3485 117.042 67.9599 116.651 67.4581 116.372C66.9563 116.092 66.3217 115.967 65.5542 115.997C64.1899 116.049 63.1704 116.74 62.4957 118.068C61.8414 119.374 61.5619 121.264 61.6572 123.737C61.6884 124.547 61.7503 125.323 61.843 126.067C61.957 126.81 62.1427 127.475 62.4002 128.063C62.6569 128.63 63.0049 129.075 63.4444 129.4C63.8831 129.703 64.4435 129.842 65.1257 129.816ZM88.6737 127.641C86.4969 128.517 84.5161 128.51 82.7314 127.619C80.9584 126.7 79.57 124.994 78.5659 122.5C77.5538 119.987 77.3685 117.785 78.0099 115.894C78.671 113.995 80.09 112.607 82.2668 111.73C84.4436 110.854 86.4184 110.875 88.1914 111.794C89.9643 112.713 91.3568 114.429 92.3688 116.942C93.3729 119.436 93.5542 121.628 92.9129 123.519C92.2636 125.39 90.8505 126.764 88.6737 127.641ZM88.2195 126.513C89.5255 125.987 90.2799 125.005 90.4826 123.566C90.7051 122.12 90.374 120.298 89.4895 118.102C88.597 115.885 87.5693 114.333 86.4066 113.444C85.2556 112.528 84.0271 112.332 82.721 112.858C81.3951 113.392 80.6249 114.392 80.4105 115.859C80.2078 117.297 80.5527 119.125 81.4452 121.341C82.3297 123.537 83.3435 125.084 84.4865 125.981C85.6493 126.869 86.8936 127.047 88.2195 126.513ZM108.032 116.72C106.239 118.267 104.36 118.931 102.395 118.711C100.446 118.478 98.565 117.311 96.7527 115.212C95.0101 113.193 94.1457 111.163 94.1593 109.122C94.1751 107.051 95.1197 105.207 96.9929 103.59C98.3655 102.405 99.658 101.797 100.87 101.765C102.083 101.733 103.072 102.161 103.839 103.049C104.341 103.63 104.584 104.238 104.567 104.872C104.551 105.506 104.285 106.046 103.768 106.492C103.542 106.688 103.273 106.849 102.961 106.978C102.665 107.092 102.376 107.116 102.093 107.05C102.24 106.698 102.26 106.329 102.152 105.943C102.044 105.557 101.823 105.17 101.488 104.782C101.084 104.314 100.652 104.025 100.191 103.916C99.7321 103.776 99.2855 103.781 98.851 103.931C98.4165 104.08 97.9893 104.336 97.5695 104.699C96.6006 105.535 96.1916 106.678 96.3424 108.126C96.4955 109.543 97.3179 111.116 98.8095 112.844C99.9248 114.136 100.994 115.031 102.016 115.53C103.04 115.998 104.004 116.152 104.909 115.992C105.815 115.801 106.64 115.385 107.382 114.744C107.964 114.242 108.405 113.692 108.706 113.094C109.023 112.482 109.191 111.844 109.209 111.18C109.228 110.516 109.072 109.861 108.741 109.217C108.958 109.142 109.183 109.174 109.415 109.312C109.646 109.45 109.887 109.777 110.137 110.295C110.601 111.388 110.641 112.495 110.256 113.616C109.871 114.737 109.13 115.772 108.032 116.72ZM103.425 94.3119C103.135 94.7341 102.732 95.0009 102.216 95.1124C101.711 95.2063 101.248 95.1084 100.826 94.8187C100.386 94.517 100.119 94.114 100.026 93.6098C99.9437 93.088 100.048 92.616 100.337 92.1938C100.627 91.7716 101.024 91.5136 101.528 91.4197C102.032 91.3258 102.504 91.4297 102.944 91.7314C103.366 92.0211 103.624 92.418 103.718 92.9223C103.812 93.4265 103.714 93.8897 103.425 94.3119ZM116.925 101.672C117.435 102.022 117.963 102.346 118.509 102.643C119.056 102.94 119.588 103.163 120.107 103.312C120.14 103.49 120.134 103.745 120.088 104.075C120.072 104.401 119.949 104.73 119.72 105.065C119.454 105.452 119.117 105.699 118.707 105.806C118.292 105.883 117.882 105.783 117.477 105.505L108.144 99.1411C107.617 98.7791 107.08 98.4494 106.533 98.1522C105.999 97.8374 105.466 97.6143 104.936 97.483C104.915 97.2874 104.921 97.0331 104.955 96.7199C104.988 96.4067 105.12 96.083 105.349 95.7488C105.615 95.3618 105.946 95.1236 106.344 95.0342C106.736 94.9152 107.143 95.0005 107.565 95.2901L116.925 101.672ZM129.492 83.5413C129.181 84.4497 128.63 85.0393 127.839 85.3101C127.055 85.5606 125.956 85.4445 124.543 84.9618L122.12 84.1343L122.569 83.6114C123.65 84.3413 124.551 85.2014 125.272 86.1917C125.973 87.1751 126.438 88.2242 126.666 89.3391C126.873 90.447 126.788 91.5562 126.408 92.6665C126.008 93.8374 125.378 94.6592 124.518 95.1318C123.637 95.5975 122.662 95.6476 121.592 95.2821C120.724 94.9856 120.043 94.5049 119.549 93.8401C119.061 93.1551 118.726 92.3532 118.544 91.4344C118.362 90.5155 118.299 89.5469 118.353 88.5286C118.421 87.6049 118.563 86.6952 118.778 85.7995C118.994 84.9038 119.233 84.1061 119.494 83.4065L118.737 83.1479C117.001 82.5548 115.606 82.3826 114.552 82.6311C113.477 82.8728 112.716 83.6497 112.268 84.9619C112.109 85.4262 112.021 85.9147 112.004 86.4273C111.993 86.9197 112.118 87.3794 112.378 87.8063C112.625 88.2062 113.061 88.513 113.687 88.7268C114.07 88.8578 114.515 88.9083 115.021 88.8784C115.514 88.8213 115.931 88.5916 116.271 88.1894C116.445 88.474 116.533 88.7749 116.538 89.092C116.522 89.4022 116.462 89.7087 116.359 90.0115C116.104 90.7585 115.628 91.2609 114.931 91.5189C114.221 91.7498 113.523 91.748 112.836 91.5135C111.645 91.1066 110.92 90.2613 110.659 88.9776C110.399 87.6938 110.579 86.1435 111.2 84.3266C111.924 82.2068 112.99 80.8351 114.398 80.2114C115.792 79.5606 117.61 79.6179 119.851 80.3834L125.725 82.3901C126.795 82.7556 127.451 82.585 127.692 81.8784C127.741 81.7371 127.756 81.5618 127.737 81.3526C127.705 81.1162 127.609 80.903 127.448 80.7129C127.671 80.6538 127.88 80.6351 128.076 80.6568C128.258 80.6514 128.43 80.6763 128.591 80.7315C129.056 80.8901 129.377 81.2365 129.555 81.7708C129.733 82.3051 129.712 82.8953 129.492 83.5413ZM124.976 90.7231C125.142 90.1711 125.163 89.5472 125.04 88.8514C124.897 88.1487 124.625 87.4586 124.226 86.781C123.826 86.1034 123.314 85.489 122.691 84.938C122.068 84.3869 121.356 83.9633 120.555 83.6673C120.376 84.1247 120.214 84.6329 120.068 85.1918C119.909 85.7235 119.79 86.2691 119.712 86.8285C119.64 87.3677 119.627 87.8702 119.67 88.336C119.69 89.2671 119.894 90.058 120.28 90.7085C120.667 91.359 121.243 91.8153 122.011 92.0773C122.596 92.2773 123.186 92.2986 123.781 92.1411C124.356 91.9767 124.754 91.504 124.976 90.7231ZM132.189 59.8053C132.258 60.3342 132.136 60.8018 131.823 61.2082C131.51 61.6145 131.099 61.8507 130.592 61.9166C130.063 61.9853 129.595 61.8631 129.189 61.5502C128.782 61.2373 128.545 60.8163 128.476 60.2874C128.41 59.7797 128.534 59.3227 128.847 58.9163C129.16 58.51 129.581 58.2724 130.109 58.2038C130.617 58.1378 131.074 58.2613 131.481 58.5743C131.887 58.8872 132.123 59.2976 132.189 59.8053ZM122.247 31.5125C122.511 31.926 122.612 32.3423 122.551 32.7612C122.471 33.1917 122.225 33.539 121.811 33.8031L104.623 44.8206L103.217 42.2632L118.032 32.7617C118.554 32.4286 119.058 32.0686 119.545 31.6816C120.032 31.2946 120.445 30.8914 120.785 30.472C120.961 30.5109 121.193 30.6161 121.48 30.7874C121.773 30.9292 122.028 31.1709 122.247 31.5125ZM109.379 48.5797C109.422 48.8055 109.375 49.0502 109.24 49.3138C109.075 49.571 108.875 49.8127 108.64 50.0389C108.393 50.2471 108.157 50.3727 107.931 50.4156C107.688 50.47 107.508 50.4073 107.394 50.2275L99.2799 37.5258C99.1651 37.346 99.1893 37.166 99.3526 36.9857C99.4865 36.799 99.7054 36.6464 100.01 36.5281C100.302 36.3918 100.606 36.3119 100.92 36.2885C101.204 36.2585 101.44 36.3105 101.627 36.4443C101.833 37.123 102.078 37.8646 102.364 38.6691C102.621 39.4671 102.916 40.2659 103.25 41.0654C103.583 41.865 103.968 42.6063 104.405 43.2895C104.83 43.9547 105.329 44.5977 105.903 45.2184C106.476 45.8392 107.071 46.4338 107.687 47.0021C108.274 47.5639 108.838 48.0898 109.379 48.5797ZM95.0099 27.1026C94.6457 26.8067 94.4335 26.4419 94.3735 26.0083C94.3134 25.5747 94.4583 25.1427 94.808 24.7122L102.027 15.7756C102.404 15.312 102.623 14.9405 102.685 14.6611C102.717 14.3848 102.617 14.1525 102.385 13.9641C102.286 13.8834 102.157 13.8058 101.997 13.7313C101.825 13.6734 101.636 13.6853 101.432 13.767C101.465 13.3542 101.596 13.007 101.825 12.7255C102.121 12.3612 102.504 12.1775 102.974 12.1744C103.427 12.1578 103.902 12.3513 104.399 12.7548C105.061 13.2929 105.399 13.9252 105.414 14.6516C105.398 15.3811 105.027 16.193 104.301 17.0871L103.03 18.6518L102.254 18.8459C103.16 17.9331 104.108 17.2739 105.097 16.8682C106.073 16.479 107.045 16.3481 108.014 16.4753C108.952 16.6057 109.844 17.0138 110.688 17.6999C112.013 18.776 112.682 19.9655 112.696 21.2683C112.679 22.5743 111.904 24.171 110.371 26.0586L106.416 30.9267C106.066 31.3572 105.714 31.841 105.36 32.378C104.993 32.9317 104.714 33.461 104.524 33.966C104.267 33.9774 103.999 33.9521 103.72 33.89C103.41 33.831 103.107 33.6805 102.809 33.4384C102.428 33.129 102.209 32.7725 102.152 32.3689C102.079 31.9519 102.203 31.5447 102.526 31.1473L107.893 24.5407C108.714 23.5307 109.312 22.6422 109.688 21.8754C110.05 21.1252 110.186 20.4665 110.097 19.8994C109.978 19.3354 109.629 18.8181 109.049 18.3472C108.652 18.0244 108.175 17.8159 107.62 17.7218C107.064 17.6276 106.441 17.6846 105.749 17.8926C105.045 18.1172 104.299 18.5281 103.511 19.1252C102.707 19.7089 101.875 20.5306 101.014 21.5903C100.233 22.5507 99.596 23.3522 99.1014 23.9948C98.5903 24.624 98.1815 25.144 97.8753 25.5549C97.5555 25.9823 97.3212 26.3553 97.1722 26.6741C96.9932 26.9959 96.8374 27.3229 96.705 27.6551C96.5249 27.6737 96.2802 27.6536 95.9708 27.5946C95.6614 27.5356 95.3411 27.3716 95.0099 27.1026ZM94.3567 6.45497C94.7556 6.60648 95.0615 6.88244 95.2745 7.28285C95.48 7.70321 95.488 8.16267 95.2986 8.66125L91.2419 19.3407C91.0298 19.8991 90.9519 20.3145 91.0082 20.5869C91.0369 20.8717 91.2008 21.0709 91.5 21.1845C91.5997 21.2224 91.7407 21.2417 91.923 21.2425C92.0977 21.2632 92.269 21.2028 92.4369 21.0612C92.555 21.4712 92.5496 21.8457 92.4208 22.1847C92.2466 22.6434 91.9469 22.9517 91.5218 23.1097C91.0767 23.2601 90.545 23.2179 89.9268 22.9831C89.1291 22.6801 88.6307 22.1598 88.4315 21.4224C88.2049 20.6973 88.3213 19.7602 88.7806 18.6111L89.4397 16.8761L89.7759 17.0723C88.9126 18.6841 87.9491 19.7786 86.8855 20.3559C85.7943 20.9455 84.6704 21.0206 83.5137 20.5812C82.4767 20.1873 81.7352 19.5861 81.2892 18.7778C80.8356 17.9893 80.802 17.0865 81.1883 16.0694C81.4459 15.3914 81.8475 14.9049 82.3931 14.6101C82.9386 14.3153 83.4645 14.2526 83.9707 14.4221C84.5366 14.6143 84.8962 14.8992 85.0494 15.2769C84.6538 15.5374 84.373 15.7958 84.2072 16.0523C84.0337 16.3287 83.8826 16.6365 83.7538 16.9755C83.5189 17.5937 83.4881 18.0955 83.6612 18.4807C83.8268 18.8859 84.1788 19.1908 84.7173 19.3953C85.2358 19.5923 85.8153 19.5386 86.4558 19.2342C87.0887 18.9497 87.7418 18.342 88.4149 17.4111C89.0805 16.5 89.7352 15.1969 90.3791 13.5018C90.8109 12.365 91.1708 11.4177 91.4586 10.6599C91.719 9.91444 91.9339 9.28863 92.1033 8.78248C92.2652 8.29627 92.3806 7.87229 92.4496 7.51054C92.511 7.16872 92.5386 6.82552 92.5326 6.48092C92.6977 6.40671 92.9464 6.35284 93.2786 6.3193C93.5909 6.27818 93.9503 6.3234 94.3567 6.45497ZM76.5546 1.0107C77.1937 1.04324 77.6224 1.22526 77.8405 1.55678C78.0362 1.90852 78.1215 2.3294 78.0966 2.81944L77.057 23.241C77.0523 23.7534 76.8831 24.14 76.5494 24.4007C76.2157 24.6614 75.8039 24.7793 75.3138 24.7543C74.8877 24.7326 74.5405 24.6295 74.2722 24.445C74.0028 24.2817 73.8075 24.1329 73.6861 23.9986C73.8422 23.4512 73.9534 22.9442 74.0199 22.4776C74.0864 22.011 74.1518 21.5658 74.2161 21.1418C74.258 20.7381 74.2903 20.3125 74.3131 19.8651C74.3348 19.439 74.3794 18.982 74.447 18.4942L74.7832 12.5195L74.9619 12.785C74.6094 13.8351 74.126 14.729 73.5117 15.4667C72.875 16.2246 72.1191 16.8056 71.2441 17.2097C70.3691 17.6137 69.3883 17.7881 68.3017 17.7328C66.9595 17.6644 65.9755 17.2726 65.3497 16.5571C64.7239 15.8417 64.4381 14.9514 64.4924 13.8861C64.5368 13.0126 64.8007 12.2356 65.2839 11.5553C65.7447 10.8952 66.329 10.3269 67.0368 9.85025C67.7234 9.37253 68.4593 8.9721 69.2448 8.64895C68.9732 8.52832 68.7481 8.33529 68.5693 8.06986C68.3682 7.82465 68.1693 7.53683 67.9725 7.2064L66.4316 4.11606C66.2178 3.69932 66.0413 3.39128 65.9019 3.19194C65.7401 3.01282 65.5101 2.91566 65.2118 2.90048C65.1053 2.89505 64.9657 2.90931 64.7931 2.94325C64.6194 2.99849 64.4542 3.09688 64.2975 3.23843C64.1559 3.0817 64.0575 2.91648 64.0023 2.74278C63.947 2.56908 63.9237 2.39701 63.9324 2.22656C63.9595 1.69392 64.2273 1.25897 64.7358 0.921718C65.2219 0.604687 65.7632 0.461356 66.3598 0.491724C66.935 0.521008 67.4483 0.718026 67.8997 1.08278C68.3511 1.44753 68.6984 1.9672 68.9418 2.64178L71.2604 8.07868C71.9328 7.87794 72.5935 7.69797 73.2424 7.53875C73.8689 7.39976 74.4518 7.2799 74.9909 7.17918C75.0376 6.26303 75.0766 5.49603 75.1081 4.87816C75.1384 4.2816 75.1527 3.79103 75.1509 3.40644C75.1268 3.04207 75.0898 2.71977 75.04 2.43954C74.9678 2.17954 74.8865 1.88703 74.7963 1.56202C74.9743 1.42156 75.2051 1.29446 75.4885 1.18072C75.7518 1.0446 76.1071 0.987923 76.5546 1.0107ZM74.9291 8.39361C74.0639 8.60589 73.1965 8.86079 72.3269 9.1583C71.4349 9.47603 70.6361 9.8519 69.9304 10.2859C69.2035 10.7189 68.6224 11.2233 68.1872 11.7993C67.7297 12.3954 67.4808 13.0877 67.4407 13.876C67.4006 14.6643 67.5748 15.2286 67.9633 15.5687C68.3295 15.9292 68.8108 16.1246 69.4074 16.1549C70.4088 16.2059 71.3215 15.8999 72.1456 15.2369C72.9473 14.5942 73.5921 13.6765 74.0801 12.4837C74.5669 11.3123 74.8499 9.94893 74.9291 8.39361ZM49.9734 2.52022C52.2113 1.88859 54.1945 2.08251 55.9231 3.10198C57.6311 4.12724 58.8618 5.9744 59.6151 8.64346C60.3395 11.2099 60.2738 13.4118 59.4181 15.2494C58.5681 17.1074 56.9318 18.3783 54.5091 19.0621C53.4005 19.375 52.3657 19.4787 51.4049 19.373C50.4499 19.2879 49.6303 18.9761 48.9464 18.4376C48.2477 17.9255 47.7592 17.1767 47.4811 16.1912C47.0465 14.6513 47.3424 13.3043 48.3688 12.1501C49.3805 11.0223 50.9539 10.157 53.0892 9.55434C53.931 9.31676 54.7712 9.11287 55.6098 8.94267C56.4337 8.7988 57.3029 8.69757 58.2173 8.63897L58.4513 9.70345C57.9148 9.76619 57.3197 9.85658 56.6658 9.97463C56.012 10.0927 55.3434 10.237 54.66 10.4077C53.9825 10.599 53.3503 10.8328 52.7633 11.1093C52.1821 11.4064 51.6828 11.7579 51.2654 12.1638C50.8538 12.5903 50.587 13.0979 50.4649 13.6865C50.3224 14.2809 50.3612 14.9682 50.5814 15.7484C50.8016 16.5286 51.1133 17.0834 51.5167 17.4129C51.92 17.7424 52.3707 17.9256 52.8687 17.9623C53.3521 18.0254 53.8298 17.9903 54.302 17.8571C55.616 17.4862 56.5082 16.6026 56.9787 15.2064C57.4343 13.8364 57.3493 12.0427 56.7234 9.82536C56.2541 8.16233 55.6647 6.89891 54.9554 6.0351C54.2519 5.19182 53.4595 4.66181 52.5781 4.44506C51.6821 4.25463 50.7515 4.2956 49.7866 4.56795C48.6779 4.88086 47.7766 5.37906 47.0829 6.06254C46.3949 6.76655 46.0128 7.57264 45.9367 8.48081C45.7082 8.45663 45.521 8.34321 45.3751 8.14054C45.2293 7.93788 45.1865 7.55093 45.247 6.9797C45.3705 5.92517 45.8555 5.01245 46.7019 4.24155C47.5484 3.47065 48.6388 2.89688 49.9734 2.52022ZM28.0828 4.45047C28.8554 3.91735 29.6535 3.49625 30.477 3.18718C31.3005 2.8781 32.0859 2.77676 32.8332 2.88313C33.5508 2.98407 34.152 3.38571 34.6367 4.08805C34.988 4.59725 35.1269 5.13648 35.0531 5.70575C34.9673 6.25746 34.6522 6.72112 34.1079 7.09673C33.5987 7.4481 33.127 7.5533 32.6927 7.41232C32.8295 7.08466 32.8658 6.76157 32.8015 6.44306C32.7196 6.13665 32.6121 5.88688 32.4788 5.69374C32.1638 5.23721 31.7952 4.94724 31.3731 4.82382C30.9388 4.68284 30.4889 4.66933 30.0232 4.78331C29.5576 4.89729 29.1228 5.09362 28.719 5.37229C27.3143 6.34161 26.6688 7.60352 26.7824 9.15801C26.8664 10.7071 27.6112 12.5 29.0167 14.5368C29.2227 14.8353 29.4502 15.1837 29.6992 15.5821C29.9427 16.0102 30.1863 16.4383 30.4298 16.8664C30.6734 17.2945 30.8927 17.6874 31.0878 18.0453L31.1516 18.7011C30.2246 16.9821 29.8466 15.3638 30.0175 13.8461C30.183 12.3582 31.0033 11.1053 32.4782 10.0875C33.7951 9.1788 35.0746 8.89201 36.3167 9.22716C37.5534 9.59199 38.8685 10.784 40.2619 12.8033L43.7332 17.8338C44.0604 18.3079 44.432 18.7901 44.8482 19.2805C45.2644 19.7709 45.6881 20.1784 46.1193 20.5028C46.0583 20.7524 45.9587 21.0025 45.8207 21.2532C45.6773 21.5337 45.4475 21.7829 45.1314 22.001C44.7276 22.2797 44.324 22.3897 43.9207 22.3311C43.4998 22.2846 43.1439 22.0506 42.8531 21.6292L38.1096 14.755C37.0433 13.2099 36.0889 12.1837 35.2464 11.6764C34.3864 11.1813 33.5262 11.2306 32.6658 11.8243C32.1917 12.1514 31.8227 12.5745 31.5588 13.0936C31.2774 13.6248 31.1395 14.2513 31.1451 14.9731C31.1453 15.7247 31.3215 16.5621 31.6736 17.4855C32.0257 18.409 32.5834 19.4238 33.3467 20.53C34.0374 21.5308 34.6156 22.35 35.0815 22.9875C35.5298 23.6372 35.9021 24.1579 36.1983 24.5496C36.5067 24.9589 36.7929 25.2798 37.057 25.5123C37.3156 25.7744 37.5858 26.0157 37.8674 26.236C37.8348 26.4141 37.7467 26.6433 37.6033 26.9237C37.4599 27.2042 37.2125 27.4655 36.8614 27.7079C36.4751 27.9744 36.0654 28.0757 35.6324 28.0116C35.1994 27.9475 34.8254 27.6872 34.5104 27.2307L26.8688 16.2133C25.5966 14.3697 24.8719 12.7185 24.6947 11.2597C24.4878 9.79541 24.7009 8.50789 25.334 7.39708C25.955 6.26871 26.8713 5.28651 28.0828 4.45047ZM9.72416 31.6832C10.0006 31.2271 10.3879 30.938 10.8861 30.8159C11.3842 30.6938 11.8522 30.7654 12.29 31.0309C12.7461 31.3073 13.0352 31.6946 13.1573 32.1928C13.2795 32.6909 13.2023 33.168 12.9258 33.6241C12.6604 34.0619 12.2786 34.3419 11.7805 34.464C11.2823 34.5862 10.8052 34.509 10.3491 34.2325C9.91131 33.9671 9.63134 33.5853 9.50921 33.0872C9.38709 32.589 9.45874 32.121 9.72416 31.6832Z" fill="#F1C953"/>
</svg>
